<?xml version="1.0" encoding="utf-8"?>
<!-- Generator: Adobe Illustrator 24.3.0, SVG Export Plug-In . SVG Version: 6.00 Build 0)  -->
<svg version="1.1" xmlns="http://www.w3.org/2000/svg" xmlns:xlink="http://www.w3.org/1999/xlink" x="0px" y="0px"
	 viewBox="0 0 630.18 151.08" style="enable-background:new 0 0 630.18 151.08;" xml:space="preserve">
<style type="text/css">
	.st0{clip-path:url(#SVGID_2_);fill:#79C3BC;}
	.st1{clip-path:url(#SVGID_2_);fill:#E9CE4A;}
	.st2{clip-path:url(#SVGID_2_);fill:#E1933D;}
	.st3{clip-path:url(#SVGID_2_);fill:#C83129;}
	.st4{stroke:#F2F2F2;stroke-width:4.7783;stroke-miterlimit:10;}
	.st5{enable-background:new    ;}
	.st6{fill:#060606;}
	.st7{fill:#1A1A1A;}
	.st8{clip-path:url(#SVGID_4_);enable-background:new    ;}
	.st9{fill:#010101;}
	.st10{clip-path:url(#SVGID_6_);enable-background:new    ;}
	.st11{fill:#020202;}
	.st12{fill:#030303;}
	.st13{fill:#040404;}
	.st14{fill:#050505;}
	.st15{fill:#070707;}
	.st16{fill:#080808;}
	.st17{clip-path:url(#SVGID_8_);enable-background:new    ;}
	.st18{fill:#FFFFFF;}
	.st19{fill:#090909;}
	.st20{clip-path:url(#SVGID_10_);enable-background:new    ;}
	.st21{clip-path:url(#SVGID_12_);enable-background:new    ;}
	.st22{clip-path:url(#SVGID_14_);enable-background:new    ;}
	.st23{clip-path:url(#SVGID_16_);enable-background:new    ;}
	.st24{fill:#0F0F0F;}
	.st25{fill:#1D1D1D;}
	.st26{clip-path:url(#SVGID_18_);enable-background:new    ;}
	.st27{clip-path:url(#SVGID_20_);enable-background:new    ;}
	.st28{clip-path:url(#SVGID_22_);enable-background:new    ;}
	.st29{clip-path:url(#SVGID_24_);enable-background:new    ;}
	.st30{clip-path:url(#SVGID_26_);enable-background:new    ;}
	.st31{clip-path:url(#SVGID_28_);enable-background:new    ;}
	.st32{clip-path:url(#SVGID_30_);enable-background:new    ;}
	.st33{clip-path:url(#SVGID_32_);enable-background:new    ;}
	.st34{clip-path:url(#SVGID_34_);enable-background:new    ;}
	.st35{clip-path:url(#SVGID_36_);enable-background:new    ;}
	.st36{clip-path:url(#SVGID_38_);enable-background:new    ;}
	.st37{clip-path:url(#SVGID_40_);enable-background:new    ;}
	.st38{clip-path:url(#SVGID_42_);enable-background:new    ;}
	.st39{clip-path:url(#SVGID_44_);enable-background:new    ;}
	.st40{fill:#1E1E1E;}
	.st41{fill:#111111;}
	.st42{clip-path:url(#SVGID_46_);}
	.st43{fill:#F2F2F2;}
	.st44{clip-path:url(#SVGID_48_);enable-background:new    ;}
	.st45{clip-path:url(#SVGID_50_);enable-background:new    ;}
	.st46{clip-path:url(#SVGID_52_);enable-background:new    ;}
	.st47{clip-path:url(#SVGID_54_);enable-background:new    ;}
	.st48{clip-path:url(#SVGID_56_);enable-background:new    ;}
	.st49{clip-path:url(#SVGID_58_);enable-background:new    ;}
	.st50{clip-path:url(#SVGID_60_);enable-background:new    ;}
	.st51{clip-path:url(#SVGID_62_);enable-background:new    ;}
	.st52{clip-path:url(#SVGID_64_);enable-background:new    ;}
	.st53{clip-path:url(#SVGID_66_);enable-background:new    ;}
	.st54{clip-path:url(#SVGID_68_);enable-background:new    ;}
	.st55{clip-path:url(#SVGID_70_);enable-background:new    ;}
	.st56{clip-path:url(#SVGID_72_);enable-background:new    ;}
	.st57{clip-path:url(#SVGID_74_);enable-background:new    ;}
	.st58{clip-path:url(#SVGID_76_);enable-background:new    ;}
	.st59{clip-path:url(#SVGID_78_);enable-background:new    ;}
	.st60{clip-path:url(#SVGID_80_);enable-background:new    ;}
	.st61{clip-path:url(#SVGID_82_);enable-background:new    ;}
	.st62{clip-path:url(#SVGID_84_);enable-background:new    ;}
	.st63{clip-path:url(#SVGID_86_);enable-background:new    ;}
	.st64{clip-path:url(#SVGID_88_);enable-background:new    ;}
	.st65{fill:#CCCCCC;}
	.st66{clip-path:url(#SVGID_90_);enable-background:new    ;}
	.st67{clip-path:url(#SVGID_92_);enable-background:new    ;}
	.st68{clip-path:url(#SVGID_94_);enable-background:new    ;}
	.st69{clip-path:url(#SVGID_96_);enable-background:new    ;}
	.st70{clip-path:url(#SVGID_98_);enable-background:new    ;}
	.st71{clip-path:url(#SVGID_100_);enable-background:new    ;}
	.st72{clip-path:url(#SVGID_102_);enable-background:new    ;}
	.st73{clip-path:url(#SVGID_104_);enable-background:new    ;}
	.st74{clip-path:url(#SVGID_106_);enable-background:new    ;}
	.st75{clip-path:url(#SVGID_108_);enable-background:new    ;}
	.st76{clip-path:url(#SVGID_110_);enable-background:new    ;}
	.st77{clip-path:url(#SVGID_112_);enable-background:new    ;}
	.st78{clip-path:url(#SVGID_114_);enable-background:new    ;}
	.st79{clip-path:url(#SVGID_116_);enable-background:new    ;}
	.st80{clip-path:url(#SVGID_118_);enable-background:new    ;}
	.st81{clip-path:url(#SVGID_120_);enable-background:new    ;}
	.st82{clip-path:url(#SVGID_122_);enable-background:new    ;}
	.st83{clip-path:url(#SVGID_124_);enable-background:new    ;}
	.st84{clip-path:url(#SVGID_126_);enable-background:new    ;}
	.st85{clip-path:url(#SVGID_128_);enable-background:new    ;}
	.st86{clip-path:url(#SVGID_130_);enable-background:new    ;}
	.st87{clip-path:url(#SVGID_132_);enable-background:new    ;}
	.st88{clip-path:url(#SVGID_134_);enable-background:new    ;}
	.st89{clip-path:url(#SVGID_136_);enable-background:new    ;}
	.st90{clip-path:url(#SVGID_138_);enable-background:new    ;}
	.st91{clip-path:url(#SVGID_140_);enable-background:new    ;}
	.st92{clip-path:url(#SVGID_142_);enable-background:new    ;}
	.st93{clip-path:url(#SVGID_144_);enable-background:new    ;}
	.st94{clip-path:url(#SVGID_146_);enable-background:new    ;}
	.st95{clip-path:url(#SVGID_148_);enable-background:new    ;}
	.st96{clip-path:url(#SVGID_150_);enable-background:new    ;}
	.st97{clip-path:url(#SVGID_152_);enable-background:new    ;}
	.st98{clip-path:url(#SVGID_154_);enable-background:new    ;}
	.st99{clip-path:url(#SVGID_156_);enable-background:new    ;}
	.st100{clip-path:url(#SVGID_158_);enable-background:new    ;}
	.st101{clip-path:url(#SVGID_160_);enable-background:new    ;}
	.st102{clip-path:url(#SVGID_162_);enable-background:new    ;}
	.st103{clip-path:url(#SVGID_164_);enable-background:new    ;}
	.st104{clip-path:url(#SVGID_166_);enable-background:new    ;}
	.st105{clip-path:url(#SVGID_168_);enable-background:new    ;}
	.st106{clip-path:url(#SVGID_170_);enable-background:new    ;}
	.st107{clip-path:url(#SVGID_172_);enable-background:new    ;}
	.st108{clip-path:url(#SVGID_174_);enable-background:new    ;}
	.st109{clip-path:url(#SVGID_176_);enable-background:new    ;}
	.st110{clip-path:url(#SVGID_178_);enable-background:new    ;}
	.st111{clip-path:url(#SVGID_180_);enable-background:new    ;}
	.st112{clip-path:url(#SVGID_182_);enable-background:new    ;}
	.st113{clip-path:url(#SVGID_184_);enable-background:new    ;}
	.st114{clip-path:url(#SVGID_186_);enable-background:new    ;}
	.st115{clip-path:url(#SVGID_188_);enable-background:new    ;}
	.st116{clip-path:url(#SVGID_190_);enable-background:new    ;}
	.st117{clip-path:url(#SVGID_192_);enable-background:new    ;}
	.st118{clip-path:url(#SVGID_194_);enable-background:new    ;}
	.st119{clip-path:url(#SVGID_196_);enable-background:new    ;}
	.st120{clip-path:url(#SVGID_198_);enable-background:new    ;}
	.st121{clip-path:url(#SVGID_200_);enable-background:new    ;}
	.st122{clip-path:url(#SVGID_202_);enable-background:new    ;}
	.st123{clip-path:url(#SVGID_204_);enable-background:new    ;}
	.st124{clip-path:url(#SVGID_206_);enable-background:new    ;}
	.st125{clip-path:url(#SVGID_208_);enable-background:new    ;}
	.st126{clip-path:url(#SVGID_210_);enable-background:new    ;}
	.st127{clip-path:url(#SVGID_212_);enable-background:new    ;}
	.st128{clip-path:url(#SVGID_214_);enable-background:new    ;}
	.st129{fill:#4D4D4D;}
	.st130{fill:#B3B3B3;}
	.st131{clip-path:url(#SVGID_216_);enable-background:new    ;}
	.st132{clip-path:url(#SVGID_218_);enable-background:new    ;}
	.st133{clip-path:url(#SVGID_220_);enable-background:new    ;}
	.st134{clip-path:url(#SVGID_222_);enable-background:new    ;}
	.st135{clip-path:url(#SVGID_224_);enable-background:new    ;}
	.st136{clip-path:url(#SVGID_226_);enable-background:new    ;}
	.st137{clip-path:url(#SVGID_228_);enable-background:new    ;}
	.st138{clip-path:url(#SVGID_230_);enable-background:new    ;}
	.st139{clip-path:url(#SVGID_232_);enable-background:new    ;}
	.st140{clip-path:url(#SVGID_234_);enable-background:new    ;}
	.st141{clip-path:url(#SVGID_236_);enable-background:new    ;}
	.st142{clip-path:url(#SVGID_238_);enable-background:new    ;}
	.st143{clip-path:url(#SVGID_240_);enable-background:new    ;}
	.st144{clip-path:url(#SVGID_242_);enable-background:new    ;}
	.st145{clip-path:url(#SVGID_244_);enable-background:new    ;}
	.st146{clip-path:url(#SVGID_246_);enable-background:new    ;}
	.st147{clip-path:url(#SVGID_248_);enable-background:new    ;}
	.st148{clip-path:url(#SVGID_250_);enable-background:new    ;}
	.st149{clip-path:url(#SVGID_252_);enable-background:new    ;}
	.st150{clip-path:url(#SVGID_254_);enable-background:new    ;}
	.st151{clip-path:url(#SVGID_256_);enable-background:new    ;}
	.st152{clip-path:url(#SVGID_258_);enable-background:new    ;}
	.st153{clip-path:url(#SVGID_260_);enable-background:new    ;}
	.st154{clip-path:url(#SVGID_262_);enable-background:new    ;}
	.st155{clip-path:url(#SVGID_264_);enable-background:new    ;}
	.st156{clip-path:url(#SVGID_266_);enable-background:new    ;}
	.st157{clip-path:url(#SVGID_268_);enable-background:new    ;}
	.st158{clip-path:url(#SVGID_270_);enable-background:new    ;}
	.st159{clip-path:url(#SVGID_272_);enable-background:new    ;}
	.st160{clip-path:url(#SVGID_274_);enable-background:new    ;}
	.st161{clip-path:url(#SVGID_276_);enable-background:new    ;}
	.st162{clip-path:url(#SVGID_278_);enable-background:new    ;}
	.st163{clip-path:url(#SVGID_280_);enable-background:new    ;}
	.st164{clip-path:url(#SVGID_282_);enable-background:new    ;}
	.st165{clip-path:url(#SVGID_284_);enable-background:new    ;}
	.st166{clip-path:url(#SVGID_286_);enable-background:new    ;}
	.st167{clip-path:url(#SVGID_288_);enable-background:new    ;}
	.st168{clip-path:url(#SVGID_290_);enable-background:new    ;}
	.st169{clip-path:url(#SVGID_292_);enable-background:new    ;}
	.st170{clip-path:url(#SVGID_294_);enable-background:new    ;}
	.st171{clip-path:url(#SVGID_296_);enable-background:new    ;}
	.st172{clip-path:url(#SVGID_298_);enable-background:new    ;}
	.st173{clip-path:url(#SVGID_300_);}
	.st174{fill:#FFFF00;}
</style>
<g id="Layer_4">
	<defs>
		<path id="SVGID_1_" d="M2050.04,165.29l-642.12,21.67c-15.85,0.54-28.05-11.45-27.25-26.77l7.15-136.35
			c0.8-15.32,14.3-28.17,30.15-28.71l642.12-21.67c15.85-0.54,28.05,11.45,27.25,26.77l-7.15,136.35
			C2079.4,151.9,2065.89,164.76,2050.04,165.29z"/>
	</defs>
	<clipPath id="SVGID_2_">
		<use xlink:href="#SVGID_1_"  style="overflow:visible;"/>
	</clipPath>
</g>
<g id="Layer_1">
	<g>
		<g>
			<polygon points="58.12,52.91 68.54,59.02 63.28,59.21 52.86,53.1 			"/>
		</g>
		<g>
			<polygon points="52.86,53.1 63.28,59.21 61.09,87.35 50.66,81.24 			"/>
		</g>
		<g class="st5">
			<defs>
				<path id="SVGID_131_" class="st5" d="M68.7,55.03l10.43,6.11c-2.53-1.48-6.13-2.28-10.58-2.12l-10.43-6.11
					C62.57,52.76,66.17,53.55,68.7,55.03z"/>
			</defs>
			<use xlink:href="#SVGID_131_"  style="overflow:visible;"/>
			<clipPath id="SVGID_4_">
				<use xlink:href="#SVGID_131_"  style="overflow:visible;"/>
			</clipPath>
			<g class="st8">
				<path d="M68.7,55.03l10.43,6.11c-2.53-1.48-6.13-2.28-10.58-2.12l-10.43-6.11C62.57,52.76,66.17,53.55,68.7,55.03"/>
			</g>
		</g>
		<g>
			<polygon points="45.77,144.01 56.19,150.12 28.61,151.08 18.19,144.97 			"/>
		</g>
		<g>
			<polygon points="49.17,100.35 59.6,106.46 56.19,150.12 45.77,144.01 			"/>
		</g>
		<g class="st5">
			<defs>
				<path id="SVGID_133_" class="st5" d="M89.03,33.57l10.43,6.11c2.24,1.31,4.36,3.04,6.27,5.29c5.54,6.43,7.8,16.23,7.09,25.27
					c-0.76,9.73-4.61,18.36-10.3,24c-4.47,4.41-10.25,7.16-15.28,8.36l-10.43-6.11c5.03-1.2,10.8-3.95,15.28-8.36
					c5.69-5.64,9.54-14.28,10.3-24c0.7-9.04-1.56-18.83-7.09-25.27C93.39,36.61,91.27,34.88,89.03,33.57z"/>
			</defs>
			<use xlink:href="#SVGID_133_"  style="overflow:visible;"/>
			<clipPath id="SVGID_6_">
				<use xlink:href="#SVGID_133_"  style="overflow:visible;"/>
			</clipPath>
			<g class="st10">
				<path d="M89.03,33.57l10.43,6.11c1.01,0.59,2,1.27,2.95,2.04l-10.43-6.11C91.03,34.84,90.04,34.16,89.03,33.57"/>
				<path d="M91.98,35.61l10.43,6.11c1.16,0.93,2.26,2.01,3.31,3.24l-10.43-6.11C94.25,37.62,93.14,36.54,91.98,35.61"/>
				<path d="M95.29,38.85l10.43,6.11c0,0,0.01,0.01,0.01,0.01c0.77,0.9,1.49,1.87,2.13,2.89l-10.43-6.11
					c-0.65-1.02-1.36-1.99-2.13-2.89C95.3,38.86,95.29,38.86,95.29,38.85"/>
				<path d="M97.43,41.75l10.43,6.11c0.66,1.04,1.26,2.15,1.79,3.29l-10.43-6.11C98.69,43.9,98.1,42.79,97.43,41.75"/>
				<path d="M99.22,45.04l10.43,6.11c0.58,1.25,1.08,2.54,1.5,3.88l-10.43-6.11C100.3,47.59,99.8,46.29,99.22,45.04"/>
				<path d="M100.72,48.92l10.43,6.11c0.48,1.53,0.87,3.11,1.16,4.71l-10.43-6.11C101.59,52.03,101.21,50.45,100.72,48.92"/>
				<path d="M101.88,53.63l10.43,6.11c0.35,1.94,0.55,3.93,0.62,5.91l-10.43-6.11C102.43,57.56,102.23,55.58,101.88,53.63"/>
				<path d="M102.5,59.54l10.43,6.11c0.05,1.54,0.02,3.08-0.1,4.59c-0.11,1.45-0.29,2.87-0.54,4.26l-10.43-6.11
					c0.25-1.39,0.43-2.81,0.54-4.26C102.51,62.61,102.55,61.08,102.5,59.54"/>
				<path d="M101.85,68.39l10.43,6.11c-0.77,4.35-2.16,8.4-4.06,11.97l-10.43-6.11C99.69,76.79,101.09,72.74,101.85,68.39"/>
				<path d="M97.79,80.35l10.43,6.11c-1.06,2-2.28,3.84-3.63,5.49l-10.43-6.11C95.51,84.19,96.73,82.35,97.79,80.35"/>
				<path d="M94.16,85.85l10.43,6.11c-0.66,0.81-1.35,1.57-2.07,2.28c-0.18,0.18-0.36,0.35-0.54,0.52l-10.43-6.11
					c0.18-0.17,0.36-0.35,0.54-0.52C92.81,87.42,93.5,86.65,94.16,85.85"/>
				<path d="M91.55,88.65l10.43,6.11c-0.86,0.8-1.76,1.55-2.7,2.24l-10.43-6.11C89.78,90.2,90.69,89.46,91.55,88.65"/>
				<path d="M88.85,90.89L99.28,97c-1,0.74-2.04,1.41-3.1,2.02l-10.43-6.11C86.81,92.3,87.85,91.63,88.85,90.89"/>
				<path d="M85.75,92.91l10.43,6.11c-1.19,0.68-2.4,1.29-3.61,1.8l-10.43-6.11C83.35,94.2,84.56,93.6,85.75,92.91"/>
				<path d="M82.14,94.72l10.43,6.11c-1.39,0.6-2.79,1.09-4.14,1.47l-10.43-6.11C79.36,95.8,80.75,95.31,82.14,94.72"/>
				<path d="M78.01,96.18l10.43,6.11c-0.4,0.11-0.8,0.22-1.19,0.31l-10.43-6.11C77.21,96.4,77.6,96.3,78.01,96.18"/>
			</g>
		</g>
		<g class="st5">
			<defs>
				<path id="SVGID_135_" class="st5" d="M134.54,84.1l10.43,6.11c-1.91,2.1-3.72,4.89-4.47,8.32l-10.43-6.11
					C130.82,88.99,132.63,86.2,134.54,84.1z"/>
			</defs>
			<use xlink:href="#SVGID_135_"  style="overflow:visible;"/>
			<clipPath id="SVGID_8_">
				<use xlink:href="#SVGID_135_"  style="overflow:visible;"/>
			</clipPath>
			<g class="st17">
				<path d="M134.54,84.1l10.43,6.11c-0.25,0.28-0.51,0.57-0.75,0.87l-10.43-6.11C134.03,84.67,134.29,84.38,134.54,84.1"/>
				<path d="M133.79,84.97l10.43,6.11c-0.77,0.95-1.51,2.01-2.14,3.19l-10.43-6.11C132.28,86.98,133.01,85.92,133.79,84.97"/>
				<path d="M131.65,88.16l10.43,6.11c-0.68,1.28-1.24,2.7-1.58,4.26l-10.43-6.11C130.41,90.86,130.97,89.44,131.65,88.16"/>
			</g>
		</g>
		<g>
			<polygon points="76.81,96.49 87.24,102.6 116.92,148 106.5,141.89 			"/>
		</g>
		<g>
			<polygon points="106.5,141.89 116.92,148 82.65,149.2 72.23,143.09 			"/>
		</g>
		<g class="st5">
			<defs>
				<path id="SVGID_137_" class="st5" d="M152.95,81.35l10.43,6.11c-2.72-1.59-5.8-1.78-7.73-1.71c-4.3,0.15-7.75,1.46-10.68,4.46
					l-10.43-6.11c2.93-3,6.38-4.31,10.68-4.46C147.15,79.57,150.24,79.76,152.95,81.35z"/>
			</defs>
			<use xlink:href="#SVGID_137_"  style="overflow:visible;"/>
			<clipPath id="SVGID_10_">
				<use xlink:href="#SVGID_137_"  style="overflow:visible;"/>
			</clipPath>
			<g class="st20">
				<path d="M152.95,81.35l10.43,6.11c-2.72-1.59-5.8-1.78-7.73-1.71c-0.55,0.02-1.08,0.06-1.61,0.12l-10.43-6.11
					c0.52-0.06,1.06-0.1,1.61-0.12C147.15,79.57,150.24,79.76,152.95,81.35"/>
				<path d="M143.62,79.75l10.43,6.11c-0.94,0.11-1.84,0.28-2.7,0.52l-10.43-6.11C141.77,80.03,142.67,79.86,143.62,79.75"/>
				<path d="M140.91,80.27l10.43,6.11c-0.6,0.17-1.19,0.38-1.76,0.62l-10.43-6.11C139.72,80.65,140.31,80.44,140.91,80.27"/>
				<path d="M139.15,80.89L149.58,87c-0.49,0.21-0.96,0.45-1.43,0.71l-10.43-6.11C138.19,81.34,138.66,81.1,139.15,80.89"/>
				<path d="M137.73,81.6l10.43,6.11c-0.45,0.26-0.89,0.54-1.31,0.86l-10.43-6.11C136.84,82.15,137.28,81.86,137.73,81.6"/>
				<path d="M136.41,82.46l10.43,6.11c-0.46,0.34-0.91,0.72-1.35,1.13l-10.43-6.11C135.5,83.18,135.95,82.8,136.41,82.46"/>
				<path d="M135.06,83.59l10.43,6.11c-0.18,0.16-0.35,0.33-0.52,0.51l-10.43-6.11C134.71,83.92,134.89,83.75,135.06,83.59"/>
			</g>
		</g>
		<g class="st5">
			<defs>
				<path id="SVGID_139_" class="st5" d="M144.03,128.58l-10.43-6.11c-0.91-0.53-1.59-1.13-2.09-1.69
					c-2.77-3.13-3.78-8.54-3.46-12.64l10.43,6.11c-0.32,4.1,0.69,9.51,3.46,12.64C142.44,127.45,143.12,128.04,144.03,128.58z"/>
			</defs>
			<use xlink:href="#SVGID_139_"  style="overflow:visible;"/>
			<clipPath id="SVGID_12_">
				<use xlink:href="#SVGID_139_"  style="overflow:visible;"/>
			</clipPath>
			<g class="st21">
				<path d="M128.06,108.13l10.43,6.11c-0.05,0.7-0.07,1.43-0.05,2.19l-10.43-6.11C127.99,109.57,128,108.83,128.06,108.13"/>
				<path d="M128.01,110.32l10.43,6.11c0.03,1.03,0.14,2.1,0.33,3.16l-10.43-6.11C128.15,112.42,128.04,111.35,128.01,110.32"/>
				<path d="M128.34,113.49l10.43,6.11c0.15,0.85,0.36,1.69,0.62,2.51L128.96,116C128.7,115.18,128.5,114.34,128.34,113.49"/>
				<path d="M128.96,116l10.43,6.11c0.21,0.67,0.46,1.32,0.75,1.94l-10.43-6.11C129.42,117.32,129.17,116.67,128.96,116"/>
				<path d="M129.71,117.94l10.43,6.11c0.25,0.53,0.52,1.04,0.82,1.51l-10.43-6.11C130.22,118.97,129.95,118.47,129.71,117.94"/>
				<path d="M130.53,119.45l10.43,6.11c0.28,0.44,0.58,0.85,0.91,1.23l-10.43-6.11C131.11,120.3,130.8,119.89,130.53,119.45"/>
				<path d="M131.43,120.68l10.43,6.11c0.03,0.03,0.06,0.06,0.08,0.1c0.27,0.3,0.58,0.61,0.96,0.91l-10.43-6.11
					c-0.38-0.3-0.69-0.61-0.96-0.91C131.49,120.74,131.46,120.71,131.43,120.68"/>
				<path d="M132.48,121.69l10.43,6.11c0.33,0.27,0.71,0.53,1.13,0.78l-10.43-6.11C133.18,122.22,132.81,121.96,132.48,121.69"/>
			</g>
		</g>
		<g class="st5">
			<defs>
				<path id="SVGID_141_" class="st5" d="M166.29,66.73l10.43,6.11c2.21,1.29,4.32,2.93,6.26,4.98c9.24,9.88,9.48,23.14,8.81,31.67
					l-10.43-6.11c0.67-8.53,0.43-21.79-8.81-31.67C170.6,69.66,168.49,68.03,166.29,66.73z"/>
			</defs>
			<use xlink:href="#SVGID_141_"  style="overflow:visible;"/>
			<clipPath id="SVGID_14_">
				<use xlink:href="#SVGID_141_"  style="overflow:visible;"/>
			</clipPath>
			<g class="st22">
				<path d="M166.29,66.73l10.43,6.11c1.19,0.69,2.34,1.49,3.46,2.39l-10.43-6.11C168.63,68.22,167.47,67.43,166.29,66.73"/>
				<path d="M169.75,69.13l10.43,6.11c0.96,0.78,1.9,1.64,2.8,2.59c0.3,0.32,0.59,0.64,0.87,0.97l-10.43-6.11
					c-0.28-0.33-0.57-0.65-0.87-0.97C171.65,70.77,170.71,69.9,169.75,69.13"/>
				<path d="M173.41,72.68l10.43,6.11c0.99,1.15,1.86,2.34,2.63,3.56l-10.43-6.11C175.27,75.02,174.4,73.83,173.41,72.68"/>
				<path d="M176.05,76.24l10.43,6.11c0.76,1.2,1.42,2.43,2,3.67l-10.43-6.11C177.47,78.66,176.81,77.44,176.05,76.24"/>
				<path d="M178.04,79.91l10.43,6.11c0.62,1.35,1.15,2.71,1.58,4.08l-10.43-6.11C179.19,82.62,178.67,81.25,178.04,79.91"/>
				<path d="M179.62,83.99l10.43,6.11c0.53,1.66,0.92,3.32,1.22,4.97l-10.43-6.11C180.55,87.32,180.15,85.65,179.62,83.99"/>
				<path d="M180.84,88.96l10.43,6.11c0.43,2.41,0.64,4.77,0.71,7.01l-10.43-6.11C181.48,93.73,181.27,91.37,180.84,88.96"/>
				<path d="M181.55,95.98l10.43,6.11c0.09,2.69-0.02,5.21-0.2,7.41l-10.43-6.11C181.53,101.18,181.64,98.67,181.55,95.98"/>
			</g>
		</g>
		<g>
			<polygon points="181.13,106.28 191.56,112.39 138.48,114.24 128.06,108.13 			"/>
		</g>
		<g>
			<polygon points="181.36,103.38 191.78,109.49 191.56,112.39 181.13,106.28 			"/>
		</g>
		<g class="st5">
			<defs>
				<path id="SVGID_143_" class="st5" d="M128.79,144.73l-10.43-6.11c6.82,3.99,14.57,4.89,21.41,4.65
					c15.46-0.54,24.15-5.94,29.84-11.58c5.68-5.64,8.38-11.69,9.83-15.99l10.43,6.11c-1.45,4.3-4.15,10.35-9.83,15.99
					c-5.68,5.64-14.37,11.04-29.84,11.58C143.36,149.62,135.6,148.73,128.79,144.73z"/>
			</defs>
			<use xlink:href="#SVGID_143_"  style="overflow:visible;"/>
			<clipPath id="SVGID_16_">
				<use xlink:href="#SVGID_143_"  style="overflow:visible;"/>
			</clipPath>
			<g class="st23">
				<path d="M179.45,115.7l10.43,6.11c-0.64,1.9-1.52,4.14-2.8,6.53l-10.43-6.11C177.93,119.83,178.81,117.6,179.45,115.7"/>
				<path d="M176.65,122.23l10.43,6.11c-1.1,2.07-2.49,4.25-4.28,6.43l-10.43-6.11C174.16,126.47,175.55,124.29,176.65,122.23"/>
				<path d="M172.38,128.65l10.43,6.11c-0.83,1.02-1.75,2.04-2.76,3.04c-0.28,0.28-0.57,0.56-0.87,0.84l-10.43-6.11
					c0.3-0.28,0.59-0.56,0.87-0.84C170.63,130.69,171.54,129.67,172.38,128.65"/>
				<path d="M168.75,132.53l10.43,6.11c-1.03,0.96-2.15,1.91-3.38,2.82l-10.43-6.11C166.6,134.44,167.72,133.49,168.75,132.53"/>
				<path d="M165.36,135.35l10.43,6.11c-1.06,0.78-2.2,1.53-3.43,2.25l-10.43-6.11C163.17,136.88,164.31,136.13,165.36,135.35"/>
				<path d="M161.93,137.59l10.43,6.11c-1.22,0.7-2.52,1.36-3.93,1.96L158,139.56C159.41,138.95,160.71,138.29,161.93,137.59"/>
				<path d="M158,139.56l10.43,6.11c-1.57,0.67-3.28,1.28-5.12,1.8l-10.43-6.11C154.72,140.84,156.42,140.23,158,139.56"/>
				<path d="M152.87,141.36l10.43,6.11c-2.46,0.69-5.18,1.23-8.2,1.57l-10.43-6.11C147.69,142.59,150.41,142.05,152.87,141.36"/>
				<path d="M144.68,142.92l10.43,6.11c-1.55,0.17-3.18,0.29-4.9,0.35c-6.84,0.24-14.6-0.66-21.41-4.65l-10.43-6.11
					c6.82,3.99,14.57,4.89,21.41,4.65C141.49,143.22,143.12,143.1,144.68,142.92"/>
			</g>
		</g>
		<g>
			<polygon points="206.18,62.37 216.61,68.48 230.61,106.95 220.19,100.84 			"/>
		</g>
		<g>
			<polygon points="225.9,137.72 236.32,143.83 218.95,144.44 208.53,138.33 			"/>
		</g>
		<g>
			<polygon points="268.99,60.18 279.42,66.29 236.32,143.83 225.9,137.72 			"/>
		</g>
		<g class="st5">
			<defs>
				<path id="SVGID_145_" class="st5" d="M293,78.57l10.43,6.11c-1.91,2.1-3.72,4.89-4.46,8.32l-10.43-6.11
					C289.27,83.45,291.08,80.67,293,78.57z"/>
			</defs>
			<use xlink:href="#SVGID_145_"  style="overflow:visible;"/>
			<clipPath id="SVGID_18_">
				<use xlink:href="#SVGID_145_"  style="overflow:visible;"/>
			</clipPath>
			<g class="st26">
				<path d="M293,78.57l10.43,6.11c-0.25,0.28-0.51,0.57-0.75,0.87l-10.43-6.11C292.49,79.14,292.74,78.84,293,78.57"/>
				<path d="M292.24,79.44l10.43,6.11c-0.77,0.94-1.51,2-2.13,3.18l-10.43-6.11C290.74,81.44,291.47,80.38,292.24,79.44"/>
				<path d="M290.11,82.62l10.43,6.11c-0.69,1.29-1.24,2.71-1.58,4.27l-10.43-6.11C288.87,85.33,289.43,83.9,290.11,82.62"/>
			</g>
		</g>
		<g class="st5">
			<defs>
				<path id="SVGID_147_" class="st5" d="M311.42,75.82l10.43,6.11c-2.72-1.59-5.81-1.78-7.74-1.71c-4.3,0.15-7.75,1.46-10.68,4.46
					L293,78.57c2.93-3,6.38-4.31,10.68-4.46C305.61,74.04,308.7,74.22,311.42,75.82z"/>
			</defs>
			<use xlink:href="#SVGID_147_"  style="overflow:visible;"/>
			<clipPath id="SVGID_20_">
				<use xlink:href="#SVGID_147_"  style="overflow:visible;"/>
			</clipPath>
			<g class="st27">
				<path d="M311.42,75.82l10.43,6.11c-2.72-1.59-5.81-1.78-7.74-1.71c-0.55,0.02-1.08,0.06-1.61,0.12l-10.43-6.11
					c0.52-0.06,1.06-0.1,1.61-0.12C305.61,74.04,308.7,74.22,311.42,75.82"/>
				<path d="M302.07,74.22l10.43,6.11c-0.94,0.11-1.84,0.28-2.7,0.52l-10.43-6.11C300.23,74.5,301.13,74.32,302.07,74.22"/>
				<path d="M299.37,74.74l10.43,6.11c-0.6,0.17-1.19,0.38-1.76,0.62l-10.43-6.11C298.18,75.11,298.76,74.91,299.37,74.74"/>
				<path d="M297.61,75.36l10.43,6.11c-0.49,0.21-0.96,0.45-1.43,0.71l-10.43-6.11C296.64,75.8,297.12,75.57,297.61,75.36"/>
				<path d="M296.18,76.07l10.43,6.11c-0.45,0.26-0.89,0.54-1.31,0.86l-10.43-6.11C295.29,76.61,295.73,76.33,296.18,76.07"/>
				<path d="M294.87,76.93l10.43,6.11c-0.46,0.34-0.91,0.72-1.35,1.13l-10.43-6.11C293.95,77.65,294.4,77.27,294.87,76.93"/>
				<path d="M293.52,78.06l10.43,6.11c-0.18,0.16-0.35,0.33-0.52,0.51L293,78.57C293.17,78.39,293.34,78.22,293.52,78.06"/>
			</g>
		</g>
		<g class="st5">
			<defs>
				<path id="SVGID_149_" class="st5" d="M302.49,123.04l-10.43-6.11c-0.91-0.53-1.59-1.13-2.09-1.69
					c-2.77-3.13-3.78-8.54-3.46-12.64l10.43,6.11c-0.32,4.1,0.69,9.51,3.46,12.64C300.9,121.92,301.58,122.51,302.49,123.04z"/>
			</defs>
			<use xlink:href="#SVGID_149_"  style="overflow:visible;"/>
			<clipPath id="SVGID_22_">
				<use xlink:href="#SVGID_149_"  style="overflow:visible;"/>
			</clipPath>
			<g class="st28">
				<path d="M286.51,102.6l10.43,6.11c-0.05,0.7-0.07,1.43-0.05,2.19l-10.43-6.11C286.44,104.03,286.46,103.3,286.51,102.6"/>
				<path d="M286.47,104.79l10.43,6.11c0.03,1.03,0.14,2.1,0.33,3.16l-10.43-6.11C286.61,106.89,286.5,105.82,286.47,104.79"/>
				<path d="M286.8,107.95l10.43,6.11c0.15,0.85,0.36,1.69,0.62,2.51l-10.43-6.11C287.16,109.65,286.95,108.8,286.8,107.95"/>
				<path d="M287.41,110.47l10.43,6.11c0.21,0.67,0.46,1.32,0.75,1.94l-10.43-6.11C287.87,111.78,287.63,111.13,287.41,110.47"/>
				<path d="M288.16,112.4l10.43,6.11c0.25,0.53,0.52,1.04,0.82,1.51l-10.43-6.11C288.68,113.44,288.41,112.93,288.16,112.4"/>
				<path d="M288.98,113.91l10.43,6.11c0.28,0.44,0.58,0.85,0.91,1.23l-10.43-6.11C289.56,114.76,289.26,114.35,288.98,113.91"/>
				<path d="M289.89,115.14l10.43,6.11c0.03,0.03,0.06,0.06,0.08,0.1c0.27,0.3,0.58,0.61,0.96,0.91l-10.43-6.11
					c-0.38-0.3-0.69-0.61-0.96-0.91C289.94,115.21,289.92,115.18,289.89,115.14"/>
				<path d="M290.93,116.16l10.43,6.11c0.33,0.27,0.71,0.53,1.13,0.78l-10.43-6.11C291.64,116.69,291.26,116.42,290.93,116.16"/>
			</g>
		</g>
		<g class="st5">
			<defs>
				<path id="SVGID_151_" class="st5" d="M324.74,61.2l10.43,6.11c2.21,1.29,4.32,2.93,6.26,4.98c9.24,9.88,9.49,23.14,8.82,31.67
					l-10.43-6.11c0.67-8.53,0.42-21.79-8.82-31.67C329.06,64.13,326.95,62.49,324.74,61.2z"/>
			</defs>
			<use xlink:href="#SVGID_151_"  style="overflow:visible;"/>
			<clipPath id="SVGID_24_">
				<use xlink:href="#SVGID_151_"  style="overflow:visible;"/>
			</clipPath>
			<g class="st29">
				<path d="M324.74,61.2l10.43,6.11c1.19,0.69,2.34,1.49,3.46,2.39l-10.43-6.11C327.08,62.69,325.92,61.89,324.74,61.2"/>
				<path d="M328.2,63.59l10.43,6.11c0.96,0.78,1.9,1.64,2.8,2.59c0.3,0.32,0.59,0.64,0.87,0.97l-10.43-6.11
					c-0.28-0.33-0.57-0.65-0.87-0.97C330.1,65.23,329.17,64.37,328.2,63.59"/>
				<path d="M331.87,67.15l10.43,6.11c0.99,1.15,1.86,2.34,2.64,3.56l-10.43-6.11C333.73,69.49,332.86,68.3,331.87,67.15"/>
				<path d="M334.5,70.71l10.43,6.11c0.76,1.2,1.42,2.43,2,3.67l-10.43-6.11C335.93,73.14,335.26,71.91,334.5,70.71"/>
				<path d="M336.5,74.38l10.43,6.11c0.62,1.35,1.15,2.72,1.58,4.09l-10.43-6.11C337.65,77.1,337.13,75.73,336.5,74.38"/>
				<path d="M338.08,78.47l10.43,6.11c0.53,1.66,0.92,3.33,1.22,4.97l-10.43-6.11C339.01,81.8,338.61,80.13,338.08,78.47"/>
				<path d="M339.3,83.44l10.43,6.11c0.43,2.41,0.64,4.77,0.71,7.02l-10.43-6.11C339.94,88.21,339.73,85.85,339.3,83.44"/>
				<path d="M340.02,90.46l10.43,6.11c0.09,2.69-0.02,5.2-0.2,7.39l-10.43-6.11C339.99,95.65,340.1,93.14,340.02,90.46"/>
			</g>
		</g>
		<g>
			<polygon points="339.6,100.75 350.02,106.86 296.94,108.71 286.51,102.6 			"/>
		</g>
		<g>
			<polygon points="339.82,97.85 350.25,103.96 350.02,106.86 339.6,100.75 			"/>
		</g>
		<g class="st5">
			<defs>
				<path id="SVGID_153_" class="st5" d="M287.25,139.2l-10.43-6.11c6.81,3.99,14.57,4.89,21.41,4.65
					c15.46-0.54,24.15-5.94,29.84-11.58c5.69-5.64,8.38-11.69,9.83-15.99l10.43,6.11c-1.45,4.3-4.14,10.35-9.83,15.99
					c-5.68,5.64-14.37,11.04-29.84,11.58C301.82,144.09,294.06,143.19,287.25,139.2z"/>
			</defs>
			<use xlink:href="#SVGID_153_"  style="overflow:visible;"/>
			<clipPath id="SVGID_26_">
				<use xlink:href="#SVGID_153_"  style="overflow:visible;"/>
			</clipPath>
			<g class="st30">
				<path d="M337.9,110.17l10.43,6.11c-0.64,1.9-1.52,4.14-2.8,6.54l-10.43-6.11C336.38,114.31,337.26,112.07,337.9,110.17"/>
				<path d="M335.1,116.7l10.43,6.11c-1.1,2.06-2.49,4.23-4.26,6.4l-10.43-6.11C332.62,120.94,334,118.76,335.1,116.7"/>
				<path d="M330.84,123.11l10.43,6.11c-0.83,1.02-1.76,2.04-2.77,3.05c-0.28,0.28-0.57,0.56-0.87,0.84L327.2,127
					c0.3-0.28,0.59-0.56,0.87-0.84C329.09,125.15,330.01,124.13,330.84,123.11"/>
				<path d="M327.2,127l10.43,6.11c-1.03,0.96-2.15,1.91-3.38,2.82l-10.43-6.11C325.05,128.9,326.17,127.96,327.2,127"/>
				<path d="M323.82,129.81l10.43,6.11c-1.06,0.78-2.2,1.53-3.43,2.24l-10.43-6.11C321.62,131.35,322.76,130.6,323.82,129.81"/>
				<path d="M320.39,132.06l10.43,6.11c-1.22,0.7-2.52,1.36-3.93,1.96l-10.43-6.11C317.86,133.42,319.17,132.76,320.39,132.06"/>
				<path d="M316.45,134.02l10.43,6.11c-1.57,0.67-3.28,1.28-5.12,1.8l-10.43-6.11C313.17,135.31,314.88,134.7,316.45,134.02"/>
				<path d="M311.33,135.82l10.43,6.11c-2.46,0.69-5.18,1.23-8.2,1.57l-10.43-6.11C306.14,137.05,308.86,136.52,311.33,135.82"/>
				<path d="M303.13,137.39l10.43,6.11c-1.55,0.17-3.18,0.29-4.9,0.35c-6.83,0.24-14.59-0.66-21.41-4.65l-10.43-6.11
					c6.81,3.99,14.57,4.89,21.41,4.65C299.95,137.68,301.58,137.56,303.13,137.39"/>
			</g>
		</g>
		<g>
			<polygon points="376.75,56.42 387.18,62.53 386.2,74.98 375.78,68.87 			"/>
		</g>
		<g>
			<polygon points="373.34,100.08 383.77,106.19 381.23,138.77 370.8,132.66 			"/>
		</g>
		<g>
			<polygon points="370.8,132.66 381.23,138.77 355.73,139.66 345.3,133.55 			"/>
		</g>
		<g class="st5">
			<defs>
				<path id="SVGID_155_" class="st5" d="M403.18,80.33l10.43,6.11c-1.22-0.64-4.56-2.56-10.78-2.35
					c-3.35,0.12-8.01,0.79-11.96,4.51c-5.83,5.47-6.78,13.5-7.1,17.59l-10.43-6.11c0.32-4.09,1.27-12.12,7.1-17.59
					c3.95-3.71,8.61-4.39,11.96-4.51C398.62,77.77,401.97,79.69,403.18,80.33z"/>
			</defs>
			<use xlink:href="#SVGID_155_"  style="overflow:visible;"/>
			<clipPath id="SVGID_28_">
				<use xlink:href="#SVGID_155_"  style="overflow:visible;"/>
			</clipPath>
			<g class="st31">
				<path d="M403.18,80.33l10.43,6.11c-1.22-0.64-4.56-2.56-10.78-2.35c-0.64,0.02-1.33,0.07-2.05,0.15l-10.43-6.11
					c0.72-0.08,1.41-0.12,2.05-0.15C398.62,77.77,401.97,79.69,403.18,80.33"/>
				<path d="M390.35,78.13l10.43,6.11c-1.02,0.11-2.11,0.3-3.23,0.62l-10.43-6.11C388.24,78.43,389.33,78.24,390.35,78.13"/>
				<path d="M387.12,78.75l10.43,6.11c-0.69,0.19-1.39,0.43-2.09,0.73l-10.43-6.11C385.73,79.18,386.43,78.94,387.12,78.75"/>
				<path d="M385.03,79.48l10.43,6.11c-0.56,0.24-1.11,0.51-1.66,0.83l-10.43-6.11C383.92,79.99,384.48,79.72,385.03,79.48"/>
				<path d="M383.37,80.31l10.43,6.11c-0.5,0.29-0.99,0.6-1.47,0.96l-10.43-6.11C382.38,80.92,382.87,80.6,383.37,80.31"/>
				<path d="M381.89,81.27l10.43,6.11c-0.48,0.36-0.96,0.75-1.43,1.19l-10.43-6.11C380.93,82.03,381.41,81.63,381.89,81.27"/>
				<path d="M380.46,82.47l10.43,6.11c-0.01,0.01-0.02,0.01-0.02,0.02c-0.61,0.57-1.16,1.17-1.67,1.79l-10.43-6.11
					c0.51-0.62,1.06-1.22,1.67-1.79C380.45,82.48,380.46,82.47,380.46,82.47"/>
				<path d="M378.77,84.28l10.43,6.11c-0.87,1.07-1.6,2.2-2.21,3.35l-10.43-6.11C377.17,86.48,377.9,85.35,378.77,84.28"/>
				<path d="M376.56,87.63l10.43,6.11c-1.46,2.76-2.24,5.64-2.69,8.14l-10.43-6.11C374.31,93.27,375.09,90.38,376.56,87.63"/>
				<path d="M373.87,95.77l10.43,6.11c-0.29,1.66-0.43,3.14-0.53,4.31l-10.43-6.11C373.44,98.91,373.58,97.43,373.87,95.77"/>
			</g>
		</g>
		<g>
			<polygon points="405.19,54.57 415.62,60.68 413.61,86.44 403.18,80.33 			"/>
		</g>
		<g class="st5">
			<defs>
				<path id="SVGID_157_" class="st5" d="M424.86,114.76l-10.43-6.11c-1.31-0.77-2.57-1.63-3.72-2.56l10.43,6.11
					C422.29,113.12,423.55,113.99,424.86,114.76z"/>
			</defs>
			<use xlink:href="#SVGID_157_"  style="overflow:visible;"/>
			<clipPath id="SVGID_30_">
				<use xlink:href="#SVGID_157_"  style="overflow:visible;"/>
			</clipPath>
			<g class="st32">
				<path d="M410.72,106.09l10.43,6.11c1.15,0.92,2.4,1.79,3.72,2.56l-10.43-6.11C413.12,107.88,411.87,107.01,410.72,106.09"/>
			</g>
		</g>
		<g class="st5">
			<defs>
				<path id="SVGID_159_" class="st5" d="M446.39,85.55l-10.43-6.11c-1.17-0.69-2.04-1.81-1.89-3.76c0.13-1.7,1.02-2.92,2.53-3.83
					l10.43,6.11c-1.5,0.9-2.39,2.13-2.53,3.83C444.35,83.74,445.22,84.86,446.39,85.55z"/>
			</defs>
			<use xlink:href="#SVGID_159_"  style="overflow:visible;"/>
			<clipPath id="SVGID_32_">
				<use xlink:href="#SVGID_159_"  style="overflow:visible;"/>
			</clipPath>
			<g class="st33">
				<path d="M436.6,71.85l10.43,6.11c-0.19,0.12-0.38,0.24-0.55,0.37l-10.43-6.11C436.22,72.08,436.41,71.96,436.6,71.85"/>
				<path d="M436.05,72.21l10.43,6.11c-0.19,0.14-0.36,0.28-0.53,0.44l-10.43-6.11C435.69,72.5,435.86,72.35,436.05,72.21"/>
				<path d="M435.52,72.65l10.43,6.11c-0.16,0.15-0.32,0.31-0.45,0.48l-10.43-6.11C435.21,72.96,435.36,72.8,435.52,72.65"/>
				<path d="M435.07,73.13l10.43,6.11c-0.18,0.23-0.34,0.46-0.48,0.72l-10.43-6.11C434.72,73.6,434.88,73.36,435.07,73.13"/>
				<path d="M434.59,73.85l10.43,6.11c-0.21,0.4-0.37,0.84-0.45,1.33l-10.43-6.11C434.22,74.7,434.37,74.26,434.59,73.85"/>
				<path d="M434.14,75.18l10.43,6.11c-0.03,0.16-0.05,0.33-0.06,0.5c-0.02,0.21-0.02,0.41-0.01,0.59l-10.43-6.11
					c-0.01-0.19,0-0.39,0.01-0.59C434.09,75.5,434.11,75.34,434.14,75.18"/>
				<path d="M434.06,76.27l10.43,6.11c0.01,0.23,0.03,0.44,0.07,0.64l-10.43-6.11C434.09,76.71,434.07,76.5,434.06,76.27"/>
				<path d="M434.12,76.91l10.43,6.11c0.03,0.17,0.07,0.33,0.12,0.48l-10.43-6.11C434.19,77.23,434.15,77.08,434.12,76.91"/>
				<path d="M434.24,77.39l10.43,6.11c0.05,0.14,0.1,0.28,0.16,0.41L434.4,77.8C434.34,77.67,434.29,77.53,434.24,77.39"/>
				<path d="M434.4,77.8l10.43,6.11c0.06,0.14,0.13,0.26,0.21,0.39l-10.43-6.11C434.53,78.06,434.46,77.93,434.4,77.8"/>
				<path d="M434.61,78.18l10.43,6.11c0.09,0.14,0.19,0.27,0.3,0.4l-10.43-6.11C434.8,78.46,434.7,78.32,434.61,78.18"/>
				<path d="M434.91,78.58l10.43,6.11c0.15,0.17,0.31,0.33,0.49,0.47l-10.43-6.11C435.22,78.91,435.06,78.75,434.91,78.58"/>
				<path d="M435.4,79.05l10.43,6.11c0.18,0.14,0.37,0.27,0.57,0.39l-10.43-6.11C435.76,79.32,435.57,79.19,435.4,79.05"/>
			</g>
		</g>
		<g class="st5">
			<defs>
				<path id="SVGID_161_" class="st5" d="M427.02,103.05l-10.43-6.11c2.7,1.58,5.59,2.25,7.82,2.73l10.43,6.11
					C432.61,105.3,429.72,104.63,427.02,103.05z"/>
			</defs>
			<use xlink:href="#SVGID_161_"  style="overflow:visible;"/>
			<clipPath id="SVGID_34_">
				<use xlink:href="#SVGID_161_"  style="overflow:visible;"/>
			</clipPath>
			<g class="st34">
				<path d="M424.41,99.66l10.43,6.11c-2.23-0.48-5.12-1.14-7.82-2.73l-10.43-6.11C419.3,98.52,422.18,99.19,424.41,99.66"/>
			</g>
		</g>
		<g>
			<polygon points="430.97,101.13 441.4,107.24 434.84,105.77 424.41,99.66 			"/>
		</g>
		<g class="st5">
			<defs>
				<path id="SVGID_163_" class="st5" d="M436.4,102.82l10.43,6.11c-1.47-0.86-3.45-1.23-5.43-1.69l-10.43-6.11
					C432.95,101.6,434.93,101.96,436.4,102.82z"/>
			</defs>
			<use xlink:href="#SVGID_163_"  style="overflow:visible;"/>
			<clipPath id="SVGID_36_">
				<use xlink:href="#SVGID_163_"  style="overflow:visible;"/>
			</clipPath>
			<g class="st35">
				<path d="M436.4,102.82l10.43,6.11c-1.47-0.86-3.45-1.23-5.43-1.69l-10.43-6.11C432.95,101.6,434.93,101.96,436.4,102.82"/>
			</g>
		</g>
		<g class="st5">
			<defs>
				<path id="SVGID_165_" class="st5" d="M455.71,73.39l10.43,6.11c-3.37-1.58-8.48-3.44-13.1-3.28c-2.55,0.09-4.34,0.66-6.01,1.74
					l-10.43-6.11c1.67-1.08,3.46-1.65,6.01-1.74C447.24,69.94,452.34,71.81,455.71,73.39z"/>
			</defs>
			<use xlink:href="#SVGID_165_"  style="overflow:visible;"/>
			<clipPath id="SVGID_38_">
				<use xlink:href="#SVGID_165_"  style="overflow:visible;"/>
			</clipPath>
			<g class="st36">
				<path d="M455.71,73.39l10.43,6.11c-3.37-1.58-8.48-3.44-13.1-3.28c-0.44,0.02-0.86,0.05-1.26,0.09l-10.43-6.11
					c0.4-0.04,0.82-0.07,1.26-0.09C447.24,69.94,452.34,71.81,455.71,73.39"/>
				<path d="M441.36,70.19l10.43,6.11c-0.7,0.08-1.34,0.2-1.94,0.37l-10.43-6.11C440.02,70.4,440.66,70.27,441.36,70.19"/>
				<path d="M439.42,70.56l10.43,6.11c-0.43,0.12-0.85,0.27-1.24,0.44L438.18,71C438.57,70.83,438.99,70.69,439.42,70.56"/>
				<path d="M438.18,71l10.43,6.11c-0.37,0.16-0.73,0.34-1.08,0.54l-10.43-6.11C437.44,71.34,437.8,71.16,438.18,71"/>
				<path d="M437.09,71.55l10.43,6.11c-0.17,0.1-0.33,0.2-0.49,0.3l-10.43-6.11C436.76,71.74,436.93,71.64,437.09,71.55"/>
			</g>
		</g>
		<g>
			<polygon points="465.68,55.7 476.11,61.81 466.14,79.5 455.71,73.39 			"/>
		</g>
		<g class="st5">
			<defs>
				<path id="SVGID_167_" class="st5" d="M455.91,85.75l10.43,6.11c1.54,0.9,2.9,1.89,3.71,2.81l-10.43-6.11
					C458.81,87.65,457.45,86.66,455.91,85.75z"/>
			</defs>
			<use xlink:href="#SVGID_167_"  style="overflow:visible;"/>
			<clipPath id="SVGID_40_">
				<use xlink:href="#SVGID_167_"  style="overflow:visible;"/>
			</clipPath>
			<g class="st37">
				<path d="M455.91,85.75l10.43,6.11c0.95,0.56,1.84,1.15,2.56,1.74l-10.43-6.11C457.75,86.9,456.87,86.31,455.91,85.75"/>
				<path d="M458.48,87.49l10.43,6.11c0.45,0.36,0.84,0.72,1.14,1.07l-10.43-6.11C459.31,88.21,458.92,87.85,458.48,87.49"/>
			</g>
		</g>
		<g class="st5">
			<defs>
				<path id="SVGID_169_" class="st5" d="M412.81,132.84l-10.43-6.11c10.69,6.26,19.8,6.68,25.77,6.48
					c5.9-0.21,18.07-1.31,27.05-10.47l10.43,6.11c-8.98,9.16-21.15,10.26-27.05,10.47C432.62,139.52,423.5,139.1,412.81,132.84z"/>
			</defs>
			<use xlink:href="#SVGID_169_"  style="overflow:visible;"/>
			<clipPath id="SVGID_42_">
				<use xlink:href="#SVGID_169_"  style="overflow:visible;"/>
			</clipPath>
			<g class="st38">
				<path d="M455.21,122.74l10.43,6.11c-0.31,0.32-0.63,0.63-0.95,0.93l-10.43-6.11C454.58,123.36,454.89,123.05,455.21,122.74"/>
				<path d="M454.26,123.66l10.43,6.11c-0.91,0.85-1.85,1.63-2.81,2.34L451.44,126C452.4,125.3,453.35,124.52,454.26,123.66"/>
				<path d="M451.44,126l10.43,6.11c-1,0.74-2.03,1.4-3.06,2L448.38,128C449.42,127.41,450.44,126.74,451.44,126"/>
				<path d="M448.38,128l10.43,6.11c-1.2,0.69-2.41,1.29-3.62,1.81l-10.43-6.11C445.97,129.29,447.18,128.69,448.38,128"/>
				<path d="M444.76,129.81l10.43,6.11c-1.6,0.69-3.19,1.23-4.75,1.67l-10.43-6.11C441.57,131.04,443.16,130.49,444.76,129.81"/>
				<path d="M440.01,131.48l10.43,6.11c-2.64,0.74-5.16,1.17-7.36,1.41l-10.43-6.11C434.86,132.64,437.37,132.22,440.01,131.48"/>
				<path d="M432.65,132.89l10.43,6.11c-1.72,0.19-3.25,0.28-4.5,0.32c-5.96,0.21-15.08-0.21-25.77-6.48l-10.43-6.11
					c10.69,6.26,19.8,6.68,25.77,6.48C429.4,133.16,430.93,133.08,432.65,132.89"/>
			</g>
		</g>
		<g class="st5">
			<defs>
				<path id="SVGID_171_" class="st5" d="M459.62,88.56l10.43,6.11c3.23,3.46,4.68,9.36,4.24,15c-0.72,9.21-4.87,15.48-8.65,19.18
					l-10.43-6.11c3.78-3.7,7.93-9.97,8.65-19.18C464.3,97.92,462.85,92.02,459.62,88.56z"/>
			</defs>
			<use xlink:href="#SVGID_171_"  style="overflow:visible;"/>
			<clipPath id="SVGID_44_">
				<use xlink:href="#SVGID_171_"  style="overflow:visible;"/>
			</clipPath>
			<g class="st39">
				<path d="M459.62,88.56l10.43,6.11c0.1,0.11,0.2,0.22,0.3,0.33l-10.43-6.11C459.82,88.78,459.72,88.67,459.62,88.56"/>
				<path d="M459.92,88.9l10.43,6.11c0.4,0.47,0.78,0.98,1.12,1.52l-10.43-6.11C460.7,89.87,460.32,89.36,459.92,88.9"/>
				<path d="M461.04,90.41l10.43,6.11c0.36,0.57,0.68,1.17,0.98,1.8l-10.43-6.11C461.73,91.58,461.4,90.98,461.04,90.41"/>
				<path d="M462.02,92.21l10.43,6.11c0.32,0.7,0.61,1.44,0.85,2.2l-10.43-6.11C462.63,93.65,462.34,92.91,462.02,92.21"/>
				<path d="M462.87,94.42l10.43,6.11c0.28,0.89,0.51,1.82,0.68,2.77l-10.43-6.11C463.38,96.24,463.15,95.31,462.87,94.42"/>
				<path d="M463.55,97.19l10.43,6.11c0.21,1.16,0.33,2.36,0.37,3.56l-10.43-6.11C463.88,99.54,463.76,98.35,463.55,97.19"/>
				<path d="M463.92,100.75l10.43,6.11c0.03,0.94,0.01,1.88-0.06,2.81c-0.09,1.14-0.23,2.23-0.42,3.28l-10.43-6.11
					c0.19-1.05,0.33-2.14,0.42-3.28C463.93,102.62,463.95,101.68,463.92,100.75"/>
				<path d="M463.44,106.84l10.43,6.11c-0.62,3.47-1.72,6.45-3.07,8.97l-10.43-6.11C461.72,113.28,462.83,110.3,463.44,106.84"/>
				<path d="M460.37,115.81l10.43,6.11c-0.95,1.78-2.02,3.34-3.11,4.68l-10.43-6.11C458.36,119.15,459.42,117.59,460.37,115.81"/>
				<path d="M457.26,120.49l10.43,6.11c-0.68,0.83-1.38,1.58-2.06,2.25l-10.43-6.11C455.89,122.07,456.58,121.32,457.26,120.49"/>
			</g>
		</g>
		<g>
			<polygon points="525.02,49.03 535.44,55.14 520.94,92.39 510.51,86.28 			"/>
		</g>
		<g>
			<polygon points="501.1,109.06 511.53,115.17 502.86,134.52 492.44,128.41 			"/>
		</g>
		<g>
			<polygon points="492.44,128.41 502.86,134.52 473.69,135.54 463.27,129.43 			"/>
		</g>
		<g>
			<polygon points="539.67,107.71 550.1,113.82 511.53,115.17 501.1,109.06 			"/>
		</g>
		<g>
			<polygon points="574.22,125.56 584.64,131.67 555.15,132.7 544.72,126.59 			"/>
		</g>
		<g>
			<polygon points="543.08,13.19 553.51,19.3 584.64,131.67 574.22,125.56 			"/>
		</g>
		<g>
			<polygon points="619.76,10.51 630.18,16.62 621.31,130.39 610.88,124.28 			"/>
		</g>
		<g>
			<polygon points="610.88,124.28 621.31,130.39 593.73,131.35 583.3,125.24 			"/>
		</g>
	</g>
	<g>
		<g>
			<path class="st65" d="M76.81,96.49l29.68,45.4l-34.27,1.2l-23.05-42.74l-3.41,43.66l-27.58,0.96l8.88-113.77l43.04-1.5
				c7.96-0.28,18.06,0.73,25.19,9.16c5.54,6.43,7.8,16.23,7.09,25.27c-0.76,9.73-4.61,18.36-10.3,24
				C87.62,92.54,81.84,95.29,76.81,96.49z M69.67,75.99c2.24-2.29,3.97-6.1,4.25-9.67c0.27-3.41-0.71-7.12-2.92-9.42
				c-2.34-2.64-6.83-4.19-12.88-3.98l-5.26,0.18l-2.2,28.15l5.26-0.18C60.07,80.92,66.06,79.51,69.67,75.99"/>
		</g>
		<g>
			<path class="st65" d="M181.36,103.38l-0.23,2.9l-53.08,1.85c-0.32,4.1,0.69,9.51,3.46,12.64c1.46,1.65,4.49,3.58,10.23,3.38
				c0.64-0.02,5.12-0.34,8.45-2.33c1.67-1.08,3.56-2.85,4.86-5.28l24.39-0.85c-1.45,4.3-4.15,10.35-9.83,15.99
				c-5.68,5.64-14.37,11.04-29.84,11.58c-9.41,0.33-20.55-1.49-28.59-10.56c-4.24-4.78-9.4-13.96-8.27-28.46
				c1-12.8,6.26-23.18,12.98-29.88c6.38-6.35,16.01-11.62,30.04-12.1c8.28-0.29,18.82,1.21,26.6,9.45
				C181.79,81.6,182.02,94.85,181.36,103.38z M130.07,92.41l28.86-1.01c-0.41-2.87-1.75-6.06-3.51-8.04
				c-3.06-3.47-7.64-3.82-10.2-3.73c-4.3,0.15-7.75,1.46-10.68,4.46C132.63,86.2,130.82,88.99,130.07,92.41"/>
		</g>
		<g>
			<polygon class="st65" points="268.99,60.18 225.9,137.72 208.53,138.33 177.65,63.37 206.18,62.37 220.19,100.84 240.62,61.17 
							"/>
		</g>
		<g>
			<path class="st65" d="M339.82,97.85l-0.23,2.9l-53.08,1.85c-0.32,4.1,0.69,9.51,3.46,12.64c1.46,1.65,4.49,3.58,10.23,3.38
				c0.64-0.02,5.12-0.34,8.45-2.33c1.67-1.08,3.56-2.85,4.86-5.28l24.39-0.85c-1.45,4.3-4.14,10.35-9.83,15.99
				c-5.68,5.64-14.37,11.04-29.84,11.58c-9.4,0.33-20.55-1.49-28.58-10.56c-4.24-4.78-9.41-13.96-8.28-28.46
				c1-12.8,6.26-23.18,12.98-29.88c6.38-6.35,16.01-11.62,30.04-12.1c8.29-0.29,18.82,1.21,26.6,9.45
				C340.24,76.06,340.49,89.32,339.82,97.85z M288.53,86.88l28.85-1.01c-0.41-2.87-1.75-6.06-3.5-8.04
				c-3.07-3.47-7.65-3.82-10.2-3.73c-4.3,0.15-7.75,1.46-10.68,4.46C291.08,80.67,289.27,83.45,288.53,86.88"/>
		</g>
		<g>
			<path class="st65" d="M400.13,54.41c0.64-0.02,1.74,0.11,5.07,0.16l-2.01,25.76c-1.22-0.64-4.56-2.56-10.78-2.35
				c-3.35,0.12-8.01,0.79-11.96,4.51c-5.83,5.47-6.78,13.5-7.1,17.59l-2.54,32.58l-25.5,0.89l5.95-76.24l25.5-0.89l-0.97,12.46
				c2.95-5.21,6.89-8.75,10.87-10.93C390.65,55.59,395.34,54.58,400.13,54.41z"/>
		</g>
		<g>
			<path class="st65" d="M443.27,51.55c10.52-0.37,18.41,2.42,22.41,4.15l-9.97,17.69c-3.37-1.58-8.48-3.44-13.1-3.28
				c-2.55,0.09-4.34,0.66-6.01,1.74c-1.5,0.9-2.39,2.13-2.53,3.83c-0.19,2.39,1.16,3.53,2.7,4.16c2.31,0.95,4.38,0.87,8.27,1.93
				l4.52,1.2c3.27,0.9,8.16,3.46,10.06,5.6c3.23,3.46,4.68,9.36,4.24,15c-0.72,9.21-4.87,15.48-8.65,19.18
				c-8.98,9.16-21.15,10.26-27.05,10.47c-6.37,0.22-16.35-0.27-28-7.86l10.57-19.25c2.84,2.28,6.35,4.2,9.76,5.27
				c3.09,1.08,7.03,1.62,9.74,1.53c1.91-0.07,4.98-0.68,6.69-2.27c1.21-1.23,1.45-2.26,1.56-3.63c0.09-1.19,0.02-2.38-1.01-3.37
				c-1.47-1.48-3.98-1.91-6.48-2.5l-6.56-1.47c-3.44-0.73-8.43-1.92-11.91-6.22c-2.48-2.98-4.06-7.17-3.61-12.97
				c0.57-7.34,3.82-14.25,8.15-18.82C422.93,55.48,432.75,51.91,443.27,51.55z"/>
		</g>
		<g>
			<path class="st65" d="M543.08,13.19l31.13,112.37l-29.49,1.03l-5.05-18.87l-38.57,1.35l-8.66,19.35l-29.17,1.02l49.68-115.19
				L543.08,13.19z M510.51,86.28l23.59-0.82l-9.08-36.43L510.51,86.28"/>
		</g>
		<g>
			<polygon class="st65" points="619.76,10.51 610.88,124.28 583.3,125.24 592.18,11.47 			"/>
		</g>
	</g>
</g>
<g id="Layer_3">
	<g>
		<g>
			<polygon class="st130" points="47.69,46.79 58.11,52.9 52.85,53.09 42.43,46.97 			"/>
		</g>
		<g>
			<polygon class="st130" points="42.43,46.97 52.85,53.09 50.66,81.23 40.23,75.12 			"/>
		</g>
		<g class="st5">
			<defs>
				<path id="SVGID_257_" class="st5" d="M58.27,48.91l10.43,6.11c-2.53-1.48-6.13-2.28-10.58-2.12l-10.43-6.11
					C52.14,46.64,55.74,47.43,58.27,48.91z"/>
			</defs>
			<use xlink:href="#SVGID_257_"  style="overflow:visible;fill:#B3B3B3;"/>
			<clipPath id="SVGID_46_">
				<use xlink:href="#SVGID_257_"  style="overflow:visible;"/>
			</clipPath>
			<g style="clip-path:url(#SVGID_46_);enable-background:new    ;">
				<path class="st130" d="M58.27,48.91l10.43,6.11c-2.53-1.48-6.13-2.28-10.58-2.12l-10.43-6.11
					C52.14,46.64,55.74,47.43,58.27,48.91"/>
			</g>
		</g>
		<g>
			<polygon class="st130" points="35.34,137.89 45.76,144 18.18,144.96 7.76,138.85 			"/>
		</g>
		<g>
			<polygon class="st130" points="38.74,94.22 49.17,100.33 45.76,144 35.34,137.89 			"/>
		</g>
		<g class="st5">
			<defs>
				<path id="SVGID_259_" class="st5" d="M78.6,27.45l10.43,6.11c2.24,1.31,4.36,3.04,6.27,5.29c5.54,6.43,7.8,16.23,7.09,25.27
					c-0.76,9.73-4.61,18.36-10.3,24c-4.47,4.41-10.25,7.16-15.28,8.36l-10.43-6.11c5.03-1.2,10.8-3.95,15.28-8.36
					c5.69-5.64,9.54-14.28,10.3-24c0.7-9.04-1.56-18.83-7.09-25.27C82.96,30.48,80.84,28.76,78.6,27.45z"/>
			</defs>
			<use xlink:href="#SVGID_259_"  style="overflow:visible;fill:#B3B3B3;"/>
			<clipPath id="SVGID_48_">
				<use xlink:href="#SVGID_259_"  style="overflow:visible;"/>
			</clipPath>
			<g class="st44">
				<path class="st130" d="M78.6,27.45l10.43,6.11c1.01,0.59,2,1.27,2.95,2.04l-10.43-6.11C80.6,28.72,79.61,28.04,78.6,27.45"/>
				<path class="st130" d="M81.55,29.49l10.43,6.11c1.16,0.93,2.26,2.01,3.31,3.24l-10.43-6.11C83.82,31.5,82.71,30.42,81.55,29.49"
					/>
				<path class="st130" d="M84.86,32.73l10.43,6.11c0,0,0.01,0.01,0.01,0.01c0.77,0.9,1.49,1.87,2.13,2.89L87,35.63
					c-0.65-1.02-1.36-1.99-2.13-2.89C84.87,32.74,84.86,32.73,84.86,32.73"/>
				<path class="st130" d="M87,35.63l10.43,6.11c0.66,1.04,1.26,2.15,1.79,3.29l-10.43-6.11C88.26,37.77,87.66,36.67,87,35.63"/>
				<path class="st130" d="M88.79,38.92l10.43,6.11c0.58,1.25,1.08,2.54,1.5,3.88L90.29,42.8C89.87,41.46,89.37,40.17,88.79,38.92"
					/>
				<path class="st130" d="M90.29,42.8l10.43,6.11c0.48,1.53,0.87,3.11,1.16,4.71l-10.43-6.11C91.16,45.91,90.78,44.33,90.29,42.8"
					/>
				<path class="st130" d="M91.45,47.51l10.43,6.11c0.35,1.94,0.55,3.93,0.62,5.91l-10.43-6.11C92,51.44,91.8,49.45,91.45,47.51"/>
				<path class="st130" d="M92.07,53.41l10.43,6.11c0.05,1.54,0.02,3.08-0.1,4.59c-0.11,1.45-0.29,2.87-0.54,4.26l-10.43-6.11
					c0.25-1.39,0.43-2.81,0.54-4.26C92.08,56.49,92.12,54.95,92.07,53.41"/>
				<path class="st130" d="M91.42,62.27l10.43,6.11c-0.77,4.35-2.16,8.4-4.06,11.97l-10.43-6.11
					C89.26,70.67,90.66,66.62,91.42,62.27"/>
				<path class="st130" d="M87.36,74.23l10.43,6.11c-1.06,2-2.28,3.84-3.63,5.49l-10.43-6.11C85.08,78.07,86.3,76.23,87.36,74.23"/>
				<path class="st130" d="M83.73,79.73l10.43,6.11c-0.66,0.81-1.35,1.57-2.07,2.28c-0.18,0.18-0.36,0.35-0.54,0.52l-10.43-6.11
					c0.18-0.17,0.36-0.35,0.54-0.52C82.38,81.29,83.07,80.53,83.73,79.73"/>
				<path class="st130" d="M81.12,82.53l10.43,6.11c-0.86,0.8-1.76,1.55-2.7,2.24l-10.43-6.11C79.35,84.08,80.26,83.33,81.12,82.53"
					/>
				<path class="st130" d="M78.42,84.77l10.43,6.11c-1,0.74-2.04,1.41-3.1,2.02l-10.43-6.11C76.38,86.18,77.42,85.51,78.42,84.77"/>
				<path class="st130" d="M75.32,86.79l10.43,6.11c-1.19,0.68-2.4,1.29-3.61,1.8l-10.43-6.11C72.92,88.08,74.13,87.48,75.32,86.79"
					/>
				<path class="st130" d="M71.71,88.59l10.43,6.11c-1.39,0.6-2.79,1.09-4.14,1.47l-10.43-6.11C68.92,89.68,70.32,89.19,71.71,88.59
					"/>
				<path class="st130" d="M67.57,90.06L78,96.17c-0.4,0.11-0.8,0.22-1.19,0.31l-10.43-6.11C66.78,90.28,67.17,90.17,67.57,90.06"/>
			</g>
		</g>
		<g class="st5">
			<defs>
				<path id="SVGID_261_" class="st5" d="M124.11,77.98l10.43,6.11c-1.91,2.1-3.72,4.89-4.47,8.32l-10.43-6.11
					C120.39,82.87,122.2,80.08,124.11,77.98z"/>
			</defs>
			<use xlink:href="#SVGID_261_"  style="overflow:visible;fill:#B3B3B3;"/>
			<clipPath id="SVGID_50_">
				<use xlink:href="#SVGID_261_"  style="overflow:visible;"/>
			</clipPath>
			<g class="st45">
				<path class="st130" d="M124.11,77.98l10.43,6.11c-0.25,0.28-0.51,0.57-0.75,0.87l-10.43-6.11
					C123.6,78.55,123.86,78.26,124.11,77.98"/>
				<path class="st130" d="M123.36,78.85l10.43,6.11c-0.77,0.95-1.51,2.01-2.14,3.19l-10.43-6.11
					C121.85,80.86,122.58,79.8,123.36,78.85"/>
				<path class="st130" d="M121.22,82.04l10.43,6.11c-0.68,1.28-1.24,2.7-1.58,4.26l-10.43-6.11
					C119.98,84.74,120.53,83.32,121.22,82.04"/>
			</g>
		</g>
		<g>
			<polygon class="st130" points="66.38,90.37 76.81,96.48 106.49,141.88 96.07,135.77 			"/>
		</g>
		<g>
			<polygon class="st130" points="96.07,135.77 106.49,141.88 72.22,143.07 61.8,136.96 			"/>
		</g>
		<g class="st5">
			<defs>
				<path id="SVGID_263_" class="st5" d="M142.52,75.23l10.43,6.11c-2.72-1.59-5.8-1.78-7.73-1.71c-4.3,0.15-7.75,1.46-10.68,4.46
					l-10.43-6.11c2.93-3,6.38-4.31,10.68-4.46C136.72,73.45,139.81,73.63,142.52,75.23z"/>
			</defs>
			<use xlink:href="#SVGID_263_"  style="overflow:visible;fill:#B3B3B3;"/>
			<clipPath id="SVGID_52_">
				<use xlink:href="#SVGID_263_"  style="overflow:visible;"/>
			</clipPath>
			<g class="st46">
				<path class="st130" d="M142.52,75.23l10.43,6.11c-2.72-1.59-5.8-1.78-7.73-1.71c-0.55,0.02-1.08,0.06-1.61,0.12l-10.43-6.11
					c0.52-0.06,1.06-0.1,1.61-0.12C136.72,73.45,139.81,73.63,142.52,75.23"/>
				<path class="st130" d="M133.18,73.63l10.43,6.11c-0.94,0.11-1.84,0.28-2.7,0.52l-10.43-6.11
					C131.34,73.91,132.24,73.74,133.18,73.63"/>
				<path class="st130" d="M130.48,74.15l10.43,6.11c-0.6,0.17-1.19,0.38-1.76,0.62l-10.43-6.11
					C129.29,74.52,129.88,74.32,130.48,74.15"/>
				<path class="st130" d="M128.72,74.77l10.43,6.11c-0.49,0.21-0.96,0.45-1.43,0.71l-10.43-6.11
					C127.76,75.21,128.23,74.98,128.72,74.77"/>
				<path class="st130" d="M127.29,75.48l10.43,6.11c-0.45,0.26-0.89,0.54-1.31,0.86l-10.43-6.11
					C126.41,76.03,126.85,75.74,127.29,75.48"/>
				<path class="st130" d="M125.98,76.34l10.43,6.11c-0.46,0.34-0.91,0.72-1.35,1.13l-10.43-6.11
					C125.07,77.06,125.52,76.68,125.98,76.34"/>
				<path class="st130" d="M124.63,77.47l10.43,6.11c-0.18,0.16-0.35,0.33-0.52,0.51l-10.43-6.11
					C124.28,77.8,124.45,77.63,124.63,77.47"/>
			</g>
		</g>
		<g class="st5">
			<defs>
				<path id="SVGID_265_" class="st5" d="M133.6,122.46l-10.43-6.11c-0.91-0.53-1.59-1.13-2.09-1.69
					c-2.77-3.13-3.78-8.54-3.46-12.64l10.43,6.11c-0.32,4.1,0.69,9.51,3.46,12.64C132.01,121.33,132.69,121.92,133.6,122.46z"/>
			</defs>
			<use xlink:href="#SVGID_265_"  style="overflow:visible;fill:#B3B3B3;"/>
			<clipPath id="SVGID_54_">
				<use xlink:href="#SVGID_265_"  style="overflow:visible;"/>
			</clipPath>
			<g class="st47">
				<path class="st130" d="M117.63,102.01l10.43,6.11c-0.05,0.7-0.07,1.43-0.05,2.19l-10.43-6.11
					C117.56,103.44,117.57,102.71,117.63,102.01"/>
				<path class="st130" d="M117.58,104.2l10.43,6.11c0.03,1.03,0.14,2.1,0.33,3.16l-10.43-6.11
					C117.72,106.3,117.61,105.23,117.58,104.2"/>
				<path class="st130" d="M117.91,107.37l10.43,6.11c0.15,0.85,0.36,1.69,0.62,2.51l-10.43-6.11
					C118.27,109.06,118.07,108.21,117.91,107.37"/>
				<path class="st130" d="M118.53,109.88l10.43,6.11c0.21,0.67,0.46,1.32,0.75,1.94l-10.43-6.11
					C118.99,111.2,118.74,110.55,118.53,109.88"/>
				<path class="st130" d="M119.28,111.81l10.43,6.11c0.25,0.53,0.52,1.04,0.82,1.51l-10.43-6.11
					C119.79,112.85,119.52,112.34,119.28,111.81"/>
				<path class="st130" d="M120.1,113.33l10.43,6.11c0.28,0.44,0.58,0.85,0.91,1.23L121,114.56
					C120.68,114.18,120.37,113.76,120.1,113.33"/>
				<path class="st130" d="M121,114.56l10.43,6.11c0.03,0.03,0.06,0.06,0.08,0.1c0.27,0.3,0.58,0.61,0.96,0.91l-10.43-6.11
					c-0.38-0.3-0.69-0.61-0.96-0.91C121.06,114.62,121.03,114.59,121,114.56"/>
				<path class="st130" d="M122.05,115.57l10.43,6.11c0.33,0.27,0.71,0.53,1.13,0.78l-10.43-6.11
					C122.75,116.1,122.38,115.83,122.05,115.57"/>
			</g>
		</g>
		<g class="st5">
			<defs>
				<path id="SVGID_267_" class="st5" d="M155.86,60.61l10.43,6.11c2.21,1.29,4.32,2.93,6.26,4.98c9.24,9.88,9.48,23.14,8.81,31.67
					l-10.43-6.11c0.67-8.53,0.43-21.79-8.81-31.67C160.17,63.54,158.06,61.9,155.86,60.61z"/>
			</defs>
			<use xlink:href="#SVGID_267_"  style="overflow:visible;fill:#B3B3B3;"/>
			<clipPath id="SVGID_56_">
				<use xlink:href="#SVGID_267_"  style="overflow:visible;"/>
			</clipPath>
			<g class="st48">
				<path class="st130" d="M155.86,60.61l10.43,6.11c1.19,0.69,2.34,1.49,3.46,2.39L159.32,63C158.2,62.1,157.04,61.31,155.86,60.61
					"/>
				<path class="st130" d="M159.32,63l10.43,6.11c0.96,0.78,1.9,1.64,2.8,2.59c0.3,0.32,0.59,0.64,0.87,0.97l-10.43-6.11
					c-0.28-0.33-0.57-0.65-0.87-0.97C161.22,64.64,160.28,63.78,159.32,63"/>
				<path class="st130" d="M162.98,66.56l10.43,6.11c0.99,1.15,1.86,2.34,2.63,3.56l-10.43-6.11
					C164.84,68.9,163.97,67.71,162.98,66.56"/>
				<path class="st130" d="M165.61,70.12l10.43,6.11c0.76,1.2,1.42,2.43,2,3.67l-10.43-6.11C167.04,72.54,166.38,71.32,165.61,70.12
					"/>
				<path class="st130" d="M167.61,73.79l10.43,6.11c0.62,1.35,1.15,2.71,1.58,4.08l-10.43-6.11
					C168.76,76.5,168.24,75.13,167.61,73.79"/>
				<path class="st130" d="M169.19,77.87l10.43,6.11c0.53,1.66,0.92,3.32,1.22,4.97l-10.43-6.11
					C170.11,81.19,169.72,79.53,169.19,77.87"/>
				<path class="st130" d="M170.41,82.84l10.43,6.11c0.43,2.41,0.64,4.77,0.71,7.01l-10.43-6.11
					C171.05,87.61,170.84,85.25,170.41,82.84"/>
				<path class="st130" d="M171.12,89.85l10.43,6.11c0.09,2.69-0.02,5.21-0.2,7.41l-10.43-6.11
					C171.1,95.06,171.21,92.55,171.12,89.85"/>
			</g>
		</g>
		<g>
			<polygon class="st130" points="170.7,100.16 181.13,106.27 128.05,108.12 117.63,102.01 			"/>
		</g>
		<g>
			<polygon class="st130" points="170.93,97.26 181.35,103.37 181.13,106.27 170.7,100.16 			"/>
		</g>
		<g class="st5">
			<defs>
				<path id="SVGID_269_" class="st5" d="M118.36,138.61l-10.43-6.11c6.82,3.99,14.57,4.89,21.41,4.65
					c15.46-0.54,24.15-5.94,29.84-11.58c5.68-5.64,8.38-11.69,9.83-15.99l10.43,6.11c-1.45,4.3-4.15,10.35-9.83,15.99
					c-5.68,5.64-14.37,11.04-29.84,11.58C132.93,143.5,125.17,142.61,118.36,138.61z"/>
			</defs>
			<use xlink:href="#SVGID_269_"  style="overflow:visible;fill:#B3B3B3;"/>
			<clipPath id="SVGID_58_">
				<use xlink:href="#SVGID_269_"  style="overflow:visible;"/>
			</clipPath>
			<g class="st49">
				<path class="st130" d="M169.02,109.58l10.43,6.11c-0.64,1.9-1.52,4.14-2.8,6.53l-10.43-6.11
					C167.49,113.71,168.38,111.48,169.02,109.58"/>
				<path class="st130" d="M166.22,116.1l10.43,6.11c-1.1,2.07-2.49,4.25-4.28,6.43l-10.43-6.11
					C163.73,120.35,165.12,118.17,166.22,116.1"/>
				<path class="st130" d="M161.94,122.53l10.43,6.11c-0.83,1.02-1.75,2.04-2.76,3.04c-0.28,0.28-0.57,0.56-0.87,0.84l-10.43-6.11
					c0.3-0.28,0.59-0.56,0.87-0.84C160.2,124.56,161.11,123.55,161.94,122.53"/>
				<path class="st130" d="M158.31,126.41l10.43,6.11c-1.03,0.96-2.15,1.91-3.38,2.82l-10.43-6.11
					C156.17,128.32,157.29,127.37,158.31,126.41"/>
				<path class="st130" d="M154.93,129.23l10.43,6.11c-1.06,0.78-2.2,1.53-3.43,2.25l-10.43-6.11
					C152.74,130.76,153.88,130.01,154.93,129.23"/>
				<path class="st130" d="M151.5,131.47l10.43,6.11c-1.22,0.7-2.52,1.36-3.93,1.96l-10.43-6.11
					C148.98,132.83,150.28,132.17,151.5,131.47"/>
				<path class="st130" d="M147.57,133.44l10.43,6.11c-1.57,0.67-3.28,1.28-5.12,1.8l-10.43-6.11
					C144.29,134.72,145.99,134.11,147.57,133.44"/>
				<path class="st130" d="M142.44,135.24l10.43,6.11c-2.46,0.69-5.18,1.23-8.2,1.57l-10.43-6.11
					C137.26,136.47,139.98,135.93,142.44,135.24"/>
				<path class="st130" d="M134.24,136.8l10.43,6.11c-1.55,0.17-3.18,0.29-4.9,0.35c-6.84,0.24-14.6-0.66-21.41-4.65l-10.43-6.11
					c6.82,3.99,14.57,4.89,21.41,4.65C131.06,137.09,132.69,136.97,134.24,136.8"/>
			</g>
		</g>
		<g>
			<polygon class="st130" points="195.75,56.25 206.18,62.36 220.18,100.83 209.76,94.72 			"/>
		</g>
		<g>
			<polygon class="st130" points="215.47,131.6 225.89,137.71 208.52,138.32 198.09,132.2 			"/>
		</g>
		<g>
			<polygon class="st130" points="258.56,54.06 268.99,60.17 225.89,137.71 215.47,131.6 			"/>
		</g>
		<g class="st5">
			<defs>
				<path id="SVGID_271_" class="st5" d="M282.56,72.44l10.43,6.11c-1.91,2.1-3.72,4.89-4.46,8.32l-10.43-6.11
					C278.84,77.33,280.65,74.55,282.56,72.44z"/>
			</defs>
			<use xlink:href="#SVGID_271_"  style="overflow:visible;fill:#B3B3B3;"/>
			<clipPath id="SVGID_60_">
				<use xlink:href="#SVGID_271_"  style="overflow:visible;"/>
			</clipPath>
			<g class="st50">
				<path class="st130" d="M282.56,72.44l10.43,6.11c-0.25,0.28-0.51,0.57-0.75,0.87l-10.43-6.11
					C282.06,73.01,282.31,72.72,282.56,72.44"/>
				<path class="st130" d="M281.81,73.32l10.43,6.11c-0.77,0.94-1.51,2-2.13,3.18l-10.43-6.11
					C280.31,75.32,281.04,74.26,281.81,73.32"/>
				<path class="st130" d="M279.68,76.49l10.43,6.11c-0.69,1.29-1.24,2.71-1.58,4.27l-10.43-6.11
					C278.44,79.2,278.99,77.78,279.68,76.49"/>
			</g>
		</g>
		<g class="st5">
			<defs>
				<path id="SVGID_273_" class="st5" d="M300.99,69.7l10.43,6.11c-2.72-1.59-5.81-1.78-7.74-1.71c-4.3,0.15-7.75,1.46-10.68,4.46
					l-10.43-6.11c2.93-3,6.38-4.31,10.68-4.46C295.17,67.92,298.27,68.1,300.99,69.7z"/>
			</defs>
			<use xlink:href="#SVGID_273_"  style="overflow:visible;fill:#B3B3B3;"/>
			<clipPath id="SVGID_62_">
				<use xlink:href="#SVGID_273_"  style="overflow:visible;"/>
			</clipPath>
			<g class="st51">
				<path class="st130" d="M300.99,69.7l10.43,6.11c-2.72-1.59-5.81-1.78-7.74-1.71c-0.55,0.02-1.08,0.06-1.61,0.12l-10.43-6.11
					c0.52-0.06,1.06-0.1,1.61-0.12C295.17,67.92,298.27,68.1,300.99,69.7"/>
				<path class="st130" d="M291.64,68.1l10.43,6.11c-0.94,0.11-1.84,0.28-2.7,0.52l-10.43-6.11C289.8,68.37,290.7,68.2,291.64,68.1"
					/>
				<path class="st130" d="M288.93,68.62l10.43,6.11c-0.6,0.17-1.19,0.38-1.76,0.62l-10.43-6.11
					C287.74,68.99,288.33,68.79,288.93,68.62"/>
				<path class="st130" d="M287.18,69.23l10.43,6.11c-0.49,0.21-0.96,0.45-1.43,0.71l-10.43-6.11
					C286.21,69.68,286.69,69.44,287.18,69.23"/>
				<path class="st130" d="M285.75,69.95l10.43,6.11c-0.45,0.26-0.89,0.54-1.31,0.86l-10.43-6.11
					C284.86,70.49,285.3,70.21,285.75,69.95"/>
				<path class="st130" d="M284.44,70.81l10.43,6.11c-0.46,0.34-0.91,0.72-1.35,1.13l-10.43-6.11
					C283.52,71.52,283.97,71.15,284.44,70.81"/>
				<path class="st130" d="M283.08,71.93l10.43,6.11c-0.18,0.16-0.35,0.33-0.52,0.51l-10.43-6.11
					C282.74,72.27,282.91,72.1,283.08,71.93"/>
			</g>
		</g>
		<g class="st5">
			<defs>
				<path id="SVGID_275_" class="st5" d="M292.06,116.92l-10.43-6.11c-0.91-0.53-1.59-1.13-2.09-1.69
					c-2.77-3.13-3.78-8.54-3.46-12.64l10.43,6.11c-0.32,4.1,0.69,9.51,3.46,12.64C290.47,115.79,291.15,116.39,292.06,116.92z"/>
			</defs>
			<use xlink:href="#SVGID_275_"  style="overflow:visible;fill:#B3B3B3;"/>
			<clipPath id="SVGID_64_">
				<use xlink:href="#SVGID_275_"  style="overflow:visible;"/>
			</clipPath>
			<g class="st52">
				<path class="st130" d="M276.08,96.48l10.43,6.11c-0.05,0.7-0.07,1.43-0.05,2.19l-10.43-6.11
					C276.01,97.91,276.03,97.18,276.08,96.48"/>
				<path class="st130" d="M276.03,98.67l10.43,6.11c0.03,1.03,0.14,2.1,0.33,3.16l-10.43-6.11
					C276.18,100.77,276.07,99.7,276.03,98.67"/>
				<path class="st130" d="M276.37,101.83l10.43,6.11c0.15,0.85,0.36,1.69,0.62,2.51l-10.43-6.11
					C276.72,103.53,276.52,102.68,276.37,101.83"/>
				<path class="st130" d="M276.98,104.34l10.43,6.11c0.21,0.67,0.46,1.32,0.75,1.94l-10.43-6.11
					C277.44,105.66,277.2,105.01,276.98,104.34"/>
				<path class="st130" d="M277.73,106.28l10.43,6.11c0.25,0.53,0.52,1.04,0.82,1.51l-10.43-6.11
					C278.25,107.32,277.98,106.81,277.73,106.28"/>
				<path class="st130" d="M278.55,107.79l10.43,6.11c0.28,0.44,0.58,0.85,0.91,1.23l-10.43-6.11
					C279.13,108.64,278.83,108.23,278.55,107.79"/>
				<path class="st130" d="M279.46,109.02l10.43,6.11c0.03,0.03,0.06,0.06,0.08,0.1c0.27,0.3,0.58,0.61,0.96,0.91l-10.43-6.11
					c-0.38-0.3-0.69-0.61-0.96-0.91C279.51,109.09,279.48,109.06,279.46,109.02"/>
				<path class="st130" d="M280.5,110.03l10.43,6.11c0.33,0.27,0.71,0.53,1.13,0.78l-10.43-6.11
					C281.21,110.56,280.83,110.3,280.5,110.03"/>
			</g>
		</g>
		<g class="st5">
			<defs>
				<path id="SVGID_277_" class="st5" d="M314.31,55.08l10.43,6.11c2.21,1.29,4.32,2.93,6.26,4.98c9.24,9.88,9.49,23.14,8.82,31.67
					l-10.43-6.11c0.67-8.53,0.42-21.79-8.82-31.67C318.63,58.01,316.51,56.37,314.31,55.08z"/>
			</defs>
			<use xlink:href="#SVGID_277_"  style="overflow:visible;fill:#B3B3B3;"/>
			<clipPath id="SVGID_66_">
				<use xlink:href="#SVGID_277_"  style="overflow:visible;"/>
			</clipPath>
			<g class="st53">
				<path class="st130" d="M314.31,55.08l10.43,6.11c1.19,0.69,2.34,1.49,3.46,2.39l-10.43-6.11
					C316.65,56.56,315.49,55.77,314.31,55.08"/>
				<path class="st130" d="M317.77,57.47l10.43,6.11c0.96,0.78,1.9,1.64,2.8,2.59c0.3,0.32,0.59,0.64,0.87,0.97l-10.43-6.11
					c-0.28-0.33-0.57-0.65-0.87-0.97C319.67,59.11,318.73,58.25,317.77,57.47"/>
				<path class="st130" d="M321.44,61.03l10.43,6.11c0.99,1.15,1.86,2.34,2.64,3.56l-10.43-6.11
					C323.3,63.37,322.42,62.18,321.44,61.03"/>
				<path class="st130" d="M324.07,64.59l10.43,6.11c0.76,1.2,1.42,2.43,2,3.67l-10.43-6.11C325.5,67.02,324.83,65.79,324.07,64.59"
					/>
				<path class="st130" d="M326.07,68.26l10.43,6.11c0.62,1.35,1.15,2.72,1.58,4.09l-10.43-6.11
					C327.22,70.97,326.7,69.61,326.07,68.26"/>
				<path class="st130" d="M327.65,72.35l10.43,6.11c0.53,1.66,0.92,3.33,1.22,4.97l-10.43-6.11
					C328.58,75.67,328.18,74.01,327.65,72.35"/>
				<path class="st130" d="M328.87,77.32l10.43,6.11c0.43,2.41,0.64,4.77,0.71,7.02l-10.43-6.11
					C329.51,82.09,329.3,79.73,328.87,77.32"/>
				<path class="st130" d="M329.59,84.34l10.43,6.11c0.09,2.69-0.02,5.2-0.2,7.39l-10.43-6.11
					C329.56,89.53,329.67,87.02,329.59,84.34"/>
			</g>
		</g>
		<g>
			<polygon class="st130" points="329.16,94.62 339.59,100.74 286.51,102.59 276.08,96.48 			"/>
		</g>
		<g>
			<polygon class="st130" points="329.39,91.73 339.82,97.84 339.59,100.74 329.16,94.62 			"/>
		</g>
		<g class="st5">
			<defs>
				<path id="SVGID_279_" class="st5" d="M276.82,133.08l-10.43-6.11c6.81,3.99,14.57,4.89,21.41,4.65
					c15.46-0.54,24.15-5.94,29.84-11.58c5.69-5.64,8.38-11.69,9.83-15.99l10.43,6.11c-1.45,4.3-4.14,10.35-9.83,15.99
					c-5.68,5.64-14.37,11.04-29.84,11.58C291.39,137.97,283.63,137.07,276.82,133.08z"/>
			</defs>
			<use xlink:href="#SVGID_279_"  style="overflow:visible;fill:#B3B3B3;"/>
			<clipPath id="SVGID_68_">
				<use xlink:href="#SVGID_279_"  style="overflow:visible;"/>
			</clipPath>
			<g class="st54">
				<path class="st130" d="M327.47,104.04l10.43,6.11c-0.64,1.9-1.52,4.14-2.8,6.54l-10.43-6.11
					C325.95,108.19,326.83,105.95,327.47,104.04"/>
				<path class="st130" d="M324.67,110.58l10.43,6.11c-1.1,2.06-2.49,4.23-4.26,6.4l-10.43-6.11
					C322.19,114.82,323.57,112.64,324.67,110.58"/>
				<path class="st130" d="M320.41,116.99l10.43,6.11c-0.83,1.02-1.76,2.04-2.77,3.05c-0.28,0.28-0.57,0.56-0.87,0.84l-10.43-6.11
					c0.3-0.28,0.59-0.56,0.87-0.84C318.65,119.03,319.58,118.01,320.41,116.99"/>
				<path class="st130" d="M316.77,120.87l10.43,6.11c-1.03,0.96-2.15,1.91-3.38,2.82l-10.43-6.11
					C314.62,122.78,315.74,121.84,316.77,120.87"/>
				<path class="st130" d="M313.39,123.69l10.43,6.11c-1.06,0.78-2.2,1.53-3.43,2.24l-10.43-6.11
					C311.19,125.23,312.33,124.47,313.39,123.69"/>
				<path class="st130" d="M309.95,125.94l10.43,6.11c-1.22,0.7-2.52,1.36-3.93,1.96l-10.43-6.11
					C307.43,127.3,308.74,126.64,309.95,125.94"/>
				<path class="st130" d="M306.02,127.9l10.43,6.11c-1.57,0.67-3.28,1.28-5.12,1.8l-10.43-6.11
					C302.74,129.18,304.45,128.58,306.02,127.9"/>
				<path class="st130" d="M300.9,129.7l10.43,6.11c-2.46,0.69-5.18,1.23-8.2,1.57l-10.43-6.11
					C295.71,130.93,298.43,130.4,300.9,129.7"/>
				<path class="st130" d="M292.7,131.27l10.43,6.11c-1.55,0.17-3.18,0.29-4.9,0.35c-6.83,0.24-14.59-0.66-21.41-4.65l-10.43-6.11
					c6.81,3.99,14.57,4.89,21.41,4.65C289.52,131.56,291.15,131.44,292.7,131.27"/>
			</g>
		</g>
		<g>
			<polygon class="st130" points="366.32,50.3 376.74,56.41 375.77,68.86 365.35,62.75 			"/>
		</g>
		<g>
			<polygon class="st130" points="362.91,93.96 373.34,100.07 370.8,132.65 360.37,126.54 			"/>
		</g>
		<g>
			<polygon class="st130" points="360.37,126.54 370.8,132.65 345.3,133.54 334.87,127.43 			"/>
		</g>
		<g class="st5">
			<defs>
				<path id="SVGID_281_" class="st5" d="M392.75,74.21l10.43,6.11c-1.22-0.64-4.56-2.56-10.78-2.35
					c-3.35,0.12-8.01,0.79-11.96,4.51c-5.83,5.47-6.78,13.5-7.1,17.59l-10.43-6.11c0.32-4.09,1.27-12.12,7.1-17.59
					c3.95-3.71,8.61-4.39,11.96-4.51C388.19,71.64,391.54,73.57,392.75,74.21z"/>
			</defs>
			<use xlink:href="#SVGID_281_"  style="overflow:visible;fill:#B3B3B3;"/>
			<clipPath id="SVGID_70_">
				<use xlink:href="#SVGID_281_"  style="overflow:visible;"/>
			</clipPath>
			<g class="st55">
				<path class="st130" d="M392.75,74.21l10.43,6.11c-1.22-0.64-4.56-2.56-10.78-2.35c-0.64,0.02-1.33,0.07-2.05,0.15l-10.43-6.11
					c0.72-0.08,1.41-0.12,2.05-0.15C388.19,71.64,391.54,73.57,392.75,74.21"/>
				<path class="st130" d="M379.92,72.01l10.43,6.11c-1.02,0.11-2.11,0.3-3.23,0.62l-10.43-6.11
					C377.81,72.31,378.9,72.12,379.92,72.01"/>
				<path class="st130" d="M376.69,72.62l10.43,6.11c-0.69,0.19-1.39,0.43-2.09,0.73l-10.43-6.11
					C375.3,73.06,376,72.82,376.69,72.62"/>
				<path class="st130" d="M374.6,73.36l10.43,6.11c-0.56,0.24-1.11,0.51-1.66,0.83l-10.43-6.11
					C373.49,73.87,374.05,73.6,374.6,73.36"/>
				<path class="st130" d="M372.94,74.19l10.43,6.11c-0.5,0.29-0.99,0.6-1.47,0.96l-10.43-6.11
					C371.95,74.79,372.44,74.48,372.94,74.19"/>
				<path class="st130" d="M371.46,75.15l10.43,6.11c-0.48,0.36-0.96,0.75-1.43,1.19l-10.43-6.11
					C370.5,75.91,370.98,75.51,371.46,75.15"/>
				<path class="st130" d="M370.03,76.34l10.43,6.11c-0.01,0.01-0.02,0.01-0.02,0.02c-0.61,0.57-1.16,1.17-1.67,1.79l-10.43-6.11
					c0.51-0.62,1.06-1.22,1.67-1.79C370.02,76.36,370.03,76.35,370.03,76.34"/>
				<path class="st130" d="M368.34,78.16l10.43,6.11c-0.87,1.07-1.6,2.2-2.21,3.35l-10.43-6.11
					C366.74,80.35,367.47,79.23,368.34,78.16"/>
				<path class="st130" d="M366.13,81.51l10.43,6.11c-1.46,2.76-2.24,5.64-2.69,8.14l-10.43-6.11
					C363.88,87.15,364.66,84.26,366.13,81.51"/>
				<path class="st130" d="M363.44,89.65l10.43,6.11c-0.29,1.66-0.43,3.14-0.53,4.31l-10.43-6.11
					C363,92.79,363.15,91.31,363.44,89.65"/>
			</g>
		</g>
		<g>
			<polygon class="st130" points="394.76,48.45 405.19,54.56 403.18,80.32 392.75,74.21 			"/>
		</g>
		<g class="st5">
			<defs>
				<path id="SVGID_283_" class="st5" d="M414.43,108.64l-10.43-6.11c-1.31-0.77-2.57-1.63-3.72-2.56l10.43,6.11
					C411.86,107,413.12,107.87,414.43,108.64z"/>
			</defs>
			<use xlink:href="#SVGID_283_"  style="overflow:visible;fill:#B3B3B3;"/>
			<clipPath id="SVGID_72_">
				<use xlink:href="#SVGID_283_"  style="overflow:visible;"/>
			</clipPath>
			<g class="st56">
				<path class="st130" d="M400.29,99.97l10.43,6.11c1.15,0.92,2.4,1.79,3.72,2.56l-10.43-6.11
					C402.69,101.76,401.43,100.89,400.29,99.97"/>
			</g>
		</g>
		<g class="st5">
			<defs>
				<path id="SVGID_285_" class="st5" d="M435.96,79.43l-10.43-6.11c-1.17-0.69-2.04-1.81-1.89-3.76c0.13-1.7,1.02-2.92,2.53-3.83
					l10.43,6.11c-1.5,0.9-2.39,2.13-2.53,3.83C433.92,77.62,434.79,78.74,435.96,79.43z"/>
			</defs>
			<use xlink:href="#SVGID_285_"  style="overflow:visible;fill:#B3B3B3;"/>
			<clipPath id="SVGID_74_">
				<use xlink:href="#SVGID_285_"  style="overflow:visible;"/>
			</clipPath>
			<g class="st57">
				<path class="st130" d="M426.17,65.72l10.43,6.11c-0.19,0.12-0.38,0.24-0.55,0.37l-10.43-6.11
					C425.79,65.96,425.98,65.84,426.17,65.72"/>
				<path class="st130" d="M425.62,66.09l10.43,6.11c-0.19,0.14-0.36,0.28-0.53,0.44l-10.43-6.11
					C425.26,66.38,425.43,66.23,425.62,66.09"/>
				<path class="st130" d="M425.09,66.53l10.43,6.11c-0.16,0.15-0.32,0.31-0.45,0.48l-10.43-6.11
					C424.78,66.84,424.93,66.68,425.09,66.53"/>
				<path class="st130" d="M424.64,67.01l10.43,6.11c-0.18,0.23-0.34,0.46-0.48,0.72l-10.43-6.11
					C424.29,67.48,424.45,67.24,424.64,67.01"/>
				<path class="st130" d="M424.16,67.73l10.43,6.11c-0.21,0.4-0.37,0.84-0.45,1.33l-10.43-6.11
					C423.79,68.57,423.94,68.13,424.16,67.73"/>
				<path class="st130" d="M423.71,69.06l10.43,6.11c-0.03,0.16-0.05,0.33-0.06,0.5c-0.02,0.21-0.02,0.41-0.01,0.59l-10.43-6.11
					c-0.01-0.19,0-0.39,0.01-0.59C423.66,69.38,423.68,69.22,423.71,69.06"/>
				<path class="st130" d="M423.63,70.15l10.43,6.11c0.01,0.23,0.03,0.44,0.07,0.64l-10.43-6.11
					C423.66,70.59,423.64,70.37,423.63,70.15"/>
				<path class="st130" d="M423.69,70.79l10.43,6.11c0.03,0.17,0.07,0.33,0.12,0.48l-10.43-6.11
					C423.76,71.11,423.72,70.95,423.69,70.79"/>
				<path class="st130" d="M423.81,71.26l10.43,6.11c0.05,0.14,0.1,0.28,0.16,0.41l-10.43-6.11
					C423.91,71.54,423.86,71.41,423.81,71.26"/>
				<path class="st130" d="M423.97,71.67l10.43,6.11c0.06,0.14,0.13,0.26,0.21,0.39l-10.43-6.11
					C424.1,71.94,424.03,71.81,423.97,71.67"/>
				<path class="st130" d="M424.18,72.06l10.43,6.11c0.09,0.14,0.19,0.27,0.3,0.4l-10.43-6.11
					C424.37,72.33,424.27,72.2,424.18,72.06"/>
				<path class="st130" d="M424.48,72.46l10.43,6.11c0.15,0.17,0.31,0.33,0.49,0.47l-10.43-6.11
					C424.79,72.79,424.62,72.63,424.48,72.46"/>
				<path class="st130" d="M424.97,72.93l10.43,6.11c0.18,0.14,0.37,0.27,0.57,0.39l-10.43-6.11
					C425.33,73.2,425.14,73.07,424.97,72.93"/>
			</g>
		</g>
		<g class="st5">
			<defs>
				<path id="SVGID_287_" class="st5" d="M416.59,96.93l-10.43-6.11c2.7,1.58,5.59,2.25,7.82,2.73l10.43,6.11
					C422.18,99.18,419.29,98.51,416.59,96.93z"/>
			</defs>
			<use xlink:href="#SVGID_287_"  style="overflow:visible;fill:#B3B3B3;"/>
			<clipPath id="SVGID_76_">
				<use xlink:href="#SVGID_287_"  style="overflow:visible;"/>
			</clipPath>
			<g class="st58">
				<path class="st130" d="M413.98,93.54l10.43,6.11c-2.23-0.48-5.12-1.14-7.82-2.73l-10.43-6.11
					C408.87,92.4,411.75,93.07,413.98,93.54"/>
			</g>
		</g>
		<g>
			<polygon class="st130" points="420.54,95.01 430.97,101.12 424.41,99.65 413.98,93.54 			"/>
		</g>
		<g class="st5">
			<defs>
				<path id="SVGID_289_" class="st5" d="M425.97,96.7l10.43,6.11c-1.47-0.86-3.45-1.23-5.43-1.69l-10.43-6.11
					C422.52,95.48,424.5,95.84,425.97,96.7z"/>
			</defs>
			<use xlink:href="#SVGID_289_"  style="overflow:visible;fill:#B3B3B3;"/>
			<clipPath id="SVGID_78_">
				<use xlink:href="#SVGID_289_"  style="overflow:visible;"/>
			</clipPath>
			<g class="st59">
				<path class="st130" d="M425.97,96.7l10.43,6.11c-1.47-0.86-3.45-1.23-5.43-1.69l-10.43-6.11
					C422.52,95.48,424.5,95.84,425.97,96.7"/>
			</g>
		</g>
		<g class="st5">
			<defs>
				<path id="SVGID_291_" class="st5" d="M445.28,67.27l10.43,6.11c-3.37-1.58-8.48-3.44-13.1-3.28c-2.55,0.09-4.34,0.66-6.01,1.74
					l-10.43-6.11c1.67-1.08,3.46-1.65,6.01-1.74C436.81,63.82,441.91,65.69,445.28,67.27z"/>
			</defs>
			<use xlink:href="#SVGID_291_"  style="overflow:visible;fill:#B3B3B3;"/>
			<clipPath id="SVGID_80_">
				<use xlink:href="#SVGID_291_"  style="overflow:visible;"/>
			</clipPath>
			<g class="st60">
				<path class="st130" d="M445.28,67.27l10.43,6.11c-3.37-1.58-8.48-3.44-13.1-3.28c-0.44,0.02-0.86,0.05-1.26,0.09l-10.43-6.11
					c0.4-0.04,0.82-0.07,1.26-0.09C436.81,63.82,441.91,65.69,445.28,67.27"/>
				<path class="st130" d="M430.93,64.07l10.43,6.11c-0.7,0.08-1.34,0.2-1.94,0.37l-10.43-6.11
					C429.59,64.27,430.23,64.15,430.93,64.07"/>
				<path class="st130" d="M428.99,64.44l10.43,6.11c-0.43,0.12-0.85,0.27-1.24,0.44l-10.43-6.11
					C428.14,64.71,428.55,64.56,428.99,64.44"/>
				<path class="st130" d="M427.74,64.88l10.43,6.11c-0.37,0.16-0.73,0.34-1.08,0.54l-10.43-6.11
					C427.01,65.22,427.37,65.04,427.74,64.88"/>
				<path class="st130" d="M426.66,65.42l10.43,6.11c-0.17,0.1-0.33,0.2-0.49,0.3l-10.43-6.11
					C426.33,65.62,426.5,65.52,426.66,65.42"/>
			</g>
		</g>
		<g>
			<polygon class="st130" points="455.25,49.57 465.67,55.68 455.71,73.38 445.28,67.27 			"/>
		</g>
		<g class="st5">
			<defs>
				<path id="SVGID_293_" class="st5" d="M445.48,79.63l10.43,6.11c1.54,0.9,2.9,1.89,3.71,2.81l-10.43-6.11
					C448.38,81.52,447.02,80.53,445.48,79.63z"/>
			</defs>
			<use xlink:href="#SVGID_293_"  style="overflow:visible;fill:#B3B3B3;"/>
			<clipPath id="SVGID_82_">
				<use xlink:href="#SVGID_293_"  style="overflow:visible;"/>
			</clipPath>
			<g class="st61">
				<path class="st130" d="M445.48,79.63l10.43,6.11c0.95,0.56,1.84,1.15,2.56,1.74l-10.43-6.11
					C447.32,80.78,446.44,80.19,445.48,79.63"/>
				<path class="st130" d="M448.05,81.37l10.43,6.11c0.45,0.36,0.84,0.72,1.14,1.07l-10.43-6.11
					C448.88,82.09,448.49,81.73,448.05,81.37"/>
			</g>
		</g>
		<g class="st5">
			<defs>
				<path id="SVGID_295_" class="st5" d="M402.38,126.72l-10.43-6.11c10.69,6.26,19.8,6.68,25.77,6.48
					c5.9-0.21,18.07-1.31,27.05-10.47l10.43,6.11c-8.98,9.16-21.15,10.26-27.05,10.47C422.19,133.4,413.07,132.98,402.38,126.72z"/>
			</defs>
			<use xlink:href="#SVGID_295_"  style="overflow:visible;fill:#B3B3B3;"/>
			<clipPath id="SVGID_84_">
				<use xlink:href="#SVGID_295_"  style="overflow:visible;"/>
			</clipPath>
			<g class="st62">
				<path class="st130" d="M444.78,116.61l10.43,6.11c-0.31,0.32-0.63,0.63-0.95,0.93l-10.43-6.11
					C444.15,117.24,444.46,116.93,444.78,116.61"/>
				<path class="st130" d="M443.83,117.54l10.43,6.11c-0.91,0.85-1.85,1.63-2.81,2.34l-10.43-6.11
					C441.97,119.17,442.91,118.4,443.83,117.54"/>
				<path class="st130" d="M441.01,119.88l10.43,6.11c-1,0.74-2.03,1.4-3.06,2l-10.43-6.11
					C438.99,121.29,440.01,120.62,441.01,119.88"/>
				<path class="st130" d="M437.95,121.88l10.43,6.11c-1.2,0.69-2.41,1.29-3.62,1.81l-10.43-6.11
					C435.54,123.17,436.75,122.57,437.95,121.88"/>
				<path class="st130" d="M434.33,123.69l10.43,6.11c-1.6,0.69-3.19,1.23-4.75,1.67l-10.43-6.11
					C431.13,124.92,432.73,124.37,434.33,123.69"/>
				<path class="st130" d="M429.58,125.35l10.43,6.11c-2.64,0.74-5.16,1.17-7.36,1.41l-10.43-6.11
					C424.42,126.52,426.94,126.1,429.58,125.35"/>
				<path class="st130" d="M422.22,126.76l10.43,6.11c-1.72,0.19-3.25,0.28-4.5,0.32c-5.96,0.21-15.08-0.21-25.77-6.48l-10.43-6.11
					c10.69,6.26,19.8,6.68,25.77,6.48C418.97,127.04,420.5,126.96,422.22,126.76"/>
			</g>
		</g>
		<g class="st5">
			<defs>
				<path id="SVGID_297_" class="st5" d="M449.19,82.44l10.43,6.11c3.23,3.46,4.68,9.36,4.24,15c-0.72,9.21-4.87,15.48-8.65,19.18
					l-10.43-6.11c3.78-3.7,7.93-9.97,8.65-19.18C453.87,91.8,452.41,85.9,449.19,82.44z"/>
			</defs>
			<use xlink:href="#SVGID_297_"  style="overflow:visible;fill:#B3B3B3;"/>
			<clipPath id="SVGID_86_">
				<use xlink:href="#SVGID_297_"  style="overflow:visible;"/>
			</clipPath>
			<g class="st63">
				<path class="st130" d="M449.19,82.44l10.43,6.11c0.1,0.11,0.2,0.22,0.3,0.33l-10.43-6.11
					C449.39,82.66,449.29,82.55,449.19,82.44"/>
				<path class="st130" d="M449.49,82.77l10.43,6.11c0.4,0.47,0.78,0.98,1.12,1.52l-10.43-6.11
					C450.27,83.75,449.89,83.24,449.49,82.77"/>
				<path class="st130" d="M450.61,84.29l10.43,6.11c0.36,0.57,0.68,1.17,0.98,1.8l-10.43-6.11
					C451.29,85.46,450.97,84.86,450.61,84.29"/>
				<path class="st130" d="M451.59,86.09l10.43,6.11c0.32,0.7,0.61,1.44,0.85,2.2l-10.43-6.11
					C452.2,87.53,451.91,86.79,451.59,86.09"/>
				<path class="st130" d="M452.44,88.3l10.43,6.11c0.28,0.89,0.51,1.82,0.68,2.77l-10.43-6.11
					C452.95,90.11,452.72,89.19,452.44,88.3"/>
				<path class="st130" d="M453.12,91.06l10.43,6.11c0.21,1.16,0.33,2.36,0.37,3.56l-10.43-6.11
					C453.45,93.42,453.33,92.23,453.12,91.06"/>
				<path class="st130" d="M453.49,94.62l10.43,6.11c0.03,0.94,0.01,1.88-0.06,2.81c-0.09,1.14-0.23,2.23-0.42,3.28l-10.43-6.11
					c0.19-1.05,0.33-2.14,0.42-3.28C453.5,96.5,453.52,95.56,453.49,94.62"/>
				<path class="st130" d="M453.01,100.71l10.43,6.11c-0.62,3.47-1.72,6.45-3.07,8.97l-10.43-6.11
					C451.29,107.16,452.39,104.18,453.01,100.71"/>
				<path class="st130" d="M449.94,109.69l10.43,6.11c-0.95,1.78-2.02,3.34-3.11,4.68l-10.43-6.11
					C447.93,113.03,448.99,111.47,449.94,109.69"/>
				<path class="st130" d="M446.83,114.36l10.43,6.11c-0.68,0.83-1.38,1.58-2.06,2.25l-10.43-6.11
					C445.46,115.95,446.15,115.2,446.83,114.36"/>
			</g>
		</g>
		<g>
			<polygon class="st130" points="514.59,42.91 525.01,49.02 510.5,86.27 500.08,80.16 			"/>
		</g>
		<g>
			<polygon class="st130" points="490.67,102.94 501.09,109.05 492.43,128.4 482.01,122.29 			"/>
		</g>
		<g>
			<polygon class="st130" points="482.01,122.29 492.43,128.4 463.26,129.42 452.84,123.31 			"/>
		</g>
		<g>
			<polygon class="st130" points="529.24,101.59 539.67,107.7 501.09,109.05 490.67,102.94 			"/>
		</g>
		<g>
			<polygon class="st130" points="563.78,119.43 574.21,125.54 544.72,126.57 534.29,120.46 			"/>
		</g>
		<g>
			<polygon class="st130" points="532.65,7.07 543.08,13.18 574.21,125.54 563.78,119.43 			"/>
		</g>
		<g>
			<polygon class="st130" points="609.33,4.39 619.75,10.5 610.88,124.26 600.45,118.15 			"/>
		</g>
		<g>
			<polygon class="st130" points="600.45,118.15 610.88,124.26 583.3,125.23 572.87,119.12 			"/>
		</g>
	</g>
	<g>
		<g>
			<path class="st18" d="M66.38,90.37l29.68,45.4l-34.27,1.2L38.74,94.22l-3.41,43.66l-27.58,0.96l8.88-113.77l43.04-1.5
				c7.96-0.28,18.06,0.73,25.19,9.16c5.54,6.43,7.8,16.23,7.09,25.27c-0.76,9.73-4.61,18.36-10.3,24
				C77.19,86.42,71.41,89.17,66.38,90.37z M59.24,69.87c2.24-2.29,3.97-6.1,4.25-9.67c0.27-3.41-0.71-7.12-2.92-9.42
				c-2.34-2.64-6.83-4.19-12.88-3.98l-5.26,0.18l-2.2,28.15l5.26-0.18C49.64,74.79,55.63,73.39,59.24,69.87"/>
		</g>
		<g>
			<path class="st18" d="M170.93,97.26l-0.23,2.9l-53.08,1.85c-0.32,4.1,0.69,9.51,3.46,12.64c1.46,1.65,4.49,3.58,10.23,3.38
				c0.64-0.02,5.12-0.34,8.45-2.33c1.67-1.08,3.56-2.85,4.86-5.28l24.39-0.85c-1.45,4.3-4.15,10.35-9.83,15.99
				c-5.68,5.64-14.37,11.04-29.84,11.58c-9.41,0.33-20.55-1.49-28.59-10.56c-4.24-4.78-9.4-13.96-8.27-28.46
				c1-12.8,6.26-23.18,12.98-29.88c6.38-6.35,16.01-11.62,30.04-12.1c8.28-0.29,18.82,1.21,26.6,9.45
				C171.36,75.47,171.59,88.73,170.93,97.26z M119.64,86.29l28.86-1.01c-0.41-2.87-1.75-6.06-3.51-8.04
				c-3.06-3.47-7.64-3.82-10.2-3.73c-4.3,0.15-7.75,1.46-10.68,4.46C122.2,80.08,120.39,82.87,119.64,86.29"/>
		</g>
		<g>
			<polygon class="st18" points="258.56,54.06 215.47,131.6 198.09,132.2 167.22,57.25 195.75,56.25 209.76,94.72 230.18,55.05 			
				"/>
		</g>
		<g>
			<path class="st18" d="M329.39,91.73l-0.23,2.9l-53.08,1.85c-0.32,4.1,0.69,9.51,3.46,12.64c1.46,1.65,4.49,3.58,10.23,3.38
				c0.64-0.02,5.12-0.34,8.45-2.33c1.67-1.08,3.56-2.85,4.86-5.28l24.39-0.85c-1.45,4.3-4.14,10.35-9.83,15.99
				c-5.68,5.64-14.37,11.04-29.84,11.58c-9.4,0.33-20.55-1.49-28.58-10.56c-4.24-4.78-9.41-13.96-8.28-28.46
				c1-12.8,6.26-23.18,12.98-29.88c6.38-6.35,16.01-11.62,30.04-12.1c8.29-0.29,18.82,1.21,26.6,9.45
				C329.81,69.94,330.06,83.2,329.39,91.73z M278.1,80.76l28.85-1.01c-0.41-2.87-1.75-6.06-3.5-8.04c-3.07-3.47-7.65-3.82-10.2-3.73
				c-4.3,0.15-7.75,1.46-10.68,4.46C280.65,74.55,278.84,77.33,278.1,80.76"/>
		</g>
		<g>
			<path class="st18" d="M389.69,48.29c0.64-0.02,1.74,0.11,5.07,0.16l-2.01,25.76c-1.22-0.64-4.56-2.56-10.78-2.35
				c-3.35,0.12-8.01,0.79-11.96,4.51c-5.83,5.47-6.78,13.5-7.1,17.59l-2.54,32.58l-25.5,0.89l5.95-76.24l25.5-0.89l-0.97,12.46
				c2.95-5.21,6.89-8.75,10.87-10.93C380.22,49.47,384.91,48.45,389.69,48.29z"/>
		</g>
		<g>
			<path class="st18" d="M432.84,45.42c10.52-0.37,18.41,2.42,22.41,4.15l-9.97,17.69c-3.37-1.58-8.48-3.44-13.1-3.28
				c-2.55,0.09-4.34,0.66-6.01,1.74c-1.5,0.9-2.39,2.13-2.53,3.83c-0.19,2.39,1.16,3.53,2.7,4.16c2.31,0.95,4.38,0.87,8.27,1.93
				l4.52,1.2c3.27,0.9,8.16,3.46,10.06,5.6c3.23,3.46,4.68,9.36,4.24,15c-0.72,9.21-4.87,15.48-8.65,19.18
				c-8.98,9.16-21.15,10.26-27.05,10.47c-6.37,0.22-16.35-0.27-28-7.86l10.57-19.25c2.84,2.28,6.35,4.2,9.76,5.27
				c3.09,1.08,7.03,1.62,9.74,1.53c1.91-0.07,4.98-0.68,6.69-2.27c1.21-1.23,1.45-2.26,1.56-3.63c0.09-1.19,0.02-2.38-1.01-3.37
				c-1.47-1.48-3.98-1.91-6.48-2.5l-6.56-1.47c-3.44-0.73-8.43-1.92-11.91-6.22c-2.48-2.98-4.06-7.17-3.61-12.97
				c0.57-7.34,3.82-14.25,8.15-18.82C412.5,49.36,422.32,45.79,432.84,45.42z"/>
		</g>
		<g>
			<path class="st18" d="M532.65,7.07l31.13,112.37l-29.49,1.03l-5.05-18.87l-38.57,1.35l-8.66,19.35l-29.17,1.02L502.52,8.12
				L532.65,7.07z M500.08,80.16l23.59-0.82l-9.08-36.43L500.08,80.16"/>
		</g>
		<g>
			<polygon class="st18" points="609.33,4.39 600.45,118.15 572.87,119.12 581.75,5.35 			"/>
		</g>
	</g>
</g>
<g id="Layer_2">
</g>
</svg>
